<?xml version="1.0" encoding="UTF-8" standalone="no"?>
<svg
   height="128pt"
   viewBox="0 0 128 128"
   width="128pt"
   version="1.1"
   id="svg27"
   sodipodi:docname="icone-o-buque-de-rosas.svg"
   inkscape:version="1.4.2 (ebf0e940d0, 2025-05-08)"
   xmlns:inkscape="http://www.inkscape.org/namespaces/inkscape"
   xmlns:sodipodi="http://sodipodi.sourceforge.net/DTD/sodipodi-0.dtd"
   xmlns="http://www.w3.org/2000/svg"
   xmlns:svg="http://www.w3.org/2000/svg">
  <sodipodi:namedview
     id="namedview27"
     pagecolor="#ffffff"
     bordercolor="#000000"
     borderopacity="0.25"
     inkscape:showpageshadow="2"
     inkscape:pageopacity="0.0"
     inkscape:pagecheckerboard="0"
     inkscape:deskcolor="#d1d1d1"
     inkscape:document-units="pt"
     inkscape:zoom="0.99933511"
     inkscape:cx="185.62342"
     inkscape:cy="250.66667"
     inkscape:window-width="1366"
     inkscape:window-height="704"
     inkscape:window-x="0"
     inkscape:window-y="0"
     inkscape:window-maximized="1"
     inkscape:current-layer="Fundo" />
  <defs
     id="defs1" />
  <g
     inkscape:label="Fundo"
     id="Fundo"
     inkscape:groupmode="layer">
    <g
       id="g27"
       transform="matrix(0.31084136,0.26876456,-0.26876456,0.31084136,67.931562,-28.906554)"
       inkscape:transform-center-x="-33.478708"
       inkscape:transform-center-y="-30.76472">
      <path
         d="m 145.633,0 c -8.121,0 -8.953,0.145 -13.539,2.328 -7.098,3.379 -11.996,7.59 -15.047,12.93 -1.961,3.433 -3.055,4.613 -4.297,4.633 -0.914,0.011 -3.574,0.734 -5.914,1.609 -15.3828,5.75 -17.1208,24.379 -3.629,38.934 3.914,4.222 4.063,4.539 4.063,8.613 v 4.23 l -3.129,-2.066 c -2.543,-1.68 -4.1718,-2.121 -8.6798,-2.348 -5.52,-0.281 -5.555,-0.297 -6.961,-3.015 -0.777,-1.504 -2.711,-3.973 -4.297,-5.489 -8.293,-7.914 -20.484,-9.402 -31.797,-3.882 -5.531,2.699 -11.722,8.898 -12.773,12.793 l -0.805,2.984 -6.965,1.141 c -8.504,1.39 -14.468,4.101 -19.234,8.75 -4.96905,4.851 -7.09405,9.55 -7.50405,16.609 -0.18,3.129 0.02,6.965 0.449,8.516 0.719,2.593 0.578,3.128 -1.738,6.562 -5.711,8.48 -5.043,16.703 1.988,24.387 4.47305,4.89 8.31705,7.304 14.39505,9.047 4.14,1.183 4.445,1.441 6.5,5.504 11.39,22.507 34.211,32.156 57.582,24.347 l 6.547,-2.187 5.121,10.586 c 5.1008,10.546 7.1438,15.875 10.9448,28.511 2.113,7.032 7.25,29.161 6.856,29.555 -0.125,0.125 -2.075,-2.223 -4.325,-5.219 -3.222,-4.281 -4.297,-6.433 -5.031,-10.078 -2.836,-14.004 -12.1478,-27.433 -23.4728,-33.847 -9.25,-5.239 -20.929,-7.52 -32.043,-6.254 -14.664,1.664 -31.144,7.683 -31.144,11.375 0,0.363 1.672,2.5 3.711,4.753 2.043,2.25 5.664,6.903 8.047,10.34 5.644,8.133 16.644,19.02 22.843,22.61 12.864,7.449 32.028,9.781 44.586,5.429 l 3.1798,-1.101 2.395,2.801 c 3.703,4.336 9.172,13.898 12.281,21.476 1.555,3.778 2.723,6.985 2.598,7.125 -0.004,0 -0.004,0.004 -0.008,0.004 -0.176,0.094 -2.039,-1.187 -4.188,-2.887 -8.281,-6.539 -18.2028,-10.195 -25.9608,-9.574 -6.539,0.524 -9.199,2.238 -11.937,7.703 -1.946,3.879 -2.258,5.332 -2.258,10.512 0.004,4.914 0.359,6.777 1.973,10.211 1.086,2.309 2.945,4.891 4.136,5.734 7.301,5.172 21.0818,5.961 34.8318,1.993 1.774,-0.512 1.754,-0.418 -0.738,3.164 -1.414,2.031 -8.582,9.71 -15.9338,17.066 -11.003,11.016 -13.363,13.754 -13.363,15.5 0,4.375 4.317,5.277 8.832,1.855 4.961,-3.757 16.0078,-14.703 22.8748,-22.668 3.664,-4.242 6.656,-7.449 6.656,-7.121 0,2.961 -14.636,49.618 -18.171,57.914 -0.762,1.793 -1.387,4.133 -1.387,5.204 0,3.964 4.453,6.148 7.113,3.492 2.098,-2.098 3.582,-5.617 8.035,-19.086 l 4.348,-13.149 0.031,17.414 c 0.028,14.801 0.211,17.59 1.215,18.594 1.602,1.602 4.527,1.488 6.254,-0.238 1.246,-1.242 1.477,-3.035 1.863,-14.461 0.391,-11.598 1.075,-36.613 1.309,-47.984 l 0.09,-4.133 0.613,3.008 c 2.027,9.867 7.699,41.359 8.992,49.918 0.84,5.558 2.039,10.882 2.664,11.835 1.348,2.051 4.899,2.344 6.692,0.555 1.672,-1.672 1.488,-4.957 -1.078,-19.484 -2.704,-15.317 -6.485,-38.93 -7.176,-44.817 l -0.496,-4.242 6.656,2.735 c 6.133,2.515 7.258,2.734 14.183,2.742 9.665,0.008 13.43,-1.125 17.387,-5.235 6.586,-6.839 7.547,-19.421 1.985,-26.023 -3.153,-3.742 -7.086,-5.141 -14.512,-5.16 -7.504,-0.02 -12.996,1.262 -20.723,4.824 -3.504,1.621 -5.574,2.231 -5.574,1.652 0,-1.632 7.281,-12.75 11.141,-17.011 l 3.742,-4.133 1.773,1.644 c 2.586,2.395 10.664,5.977 17.567,7.789 15.035,3.942 32.55,-1.418 49.648,-15.191 4.137,-3.336 9.137,-7.242 11.113,-8.687 4.071,-2.977 5.348,-4.875 4.684,-6.965 -1.109,-3.493 -18.27,-12.547 -29.988,-15.825 -23.43,-6.546 -46.098,2.84 -55.434,22.958 -1.148,2.48 -3.641,6.015 -5.535,7.859 -1.801,1.75 -3.289,3.047 -3.438,3.008 v -0.004 h -0.003 v -0.004 h -0.004 v -0.004 -0.004 h -0.004 v -0.004 c 0,-1.308 5.297,-13.648 9.133,-21.277 5.281,-10.496 11.05,-19.649 17.097,-27.102 2.328,-2.875 4.613,-5.726 5.078,-6.336 0.711,-0.933 1.684,-0.562 6.391,2.446 8.598,5.496 13.949,6.867 26.617,6.828 9.844,-0.032 10.988,-0.188 17.52,-2.438 13.605,-4.679 24.027,-10.836 33.757,-19.926 12.551,-11.722 17.036,-23.535 13.18,-34.707 -1.238,-3.585 -1.234,-3.957 0.102,-8.261 1.937,-6.258 1.414,-15.176 -1.231,-20.946 -4.207,-9.175 -12.609,-15.211 -22.308,-16.023 l -5.129,-0.43 -1.735,-3.703 c -3.515,-7.5 -10.734,-11.898 -20.472,-12.472 -10.364,-0.614 -19.684,3.093 -24.219,9.624 -1.422,2.055 -2.637,3 -3.844,3 -1.715,0 -1.687,-0.113 1.168,-4.531 3.91,-6.039 6.078,-12.59 6.582,-19.886 0.379,-5.477 0.633,-6.247 2.871,-8.641 3.489,-3.738 6.098,-8.195 7.867,-13.445 2.297,-6.805 1.801,-11.536 -1.75,-16.762 -1.23,-1.813 -1.874,-4.074 -2.156,-7.563 -0.441,-5.5 -3.422,-12.757 -6.937,-16.914 C 198.48,8.066 184.039,3.801 172.82,6.676 l -4.781,1.222 -3.508,-2.57 C 158.473,0.887 155.332,0 145.633,0 Z m -31.379,96.508 3.219,4.789 c 1.765,2.633 5.187,6.555 7.601,8.715 4.184,3.746 15.168,9.828 17.746,9.828 0.672,0 1.403,0.297 1.629,0.66 0.227,0.367 -0.953,7.719 -2.617,16.344 -7.062,36.617 -10.941,62.383 -13.5,89.687 -0.871,9.297 -1.836,19.274 -2.144,22.164 l -0.555,5.262 -0.582,-3.758 c -1.18,-7.601 -5.793,-28.058 -8.344,-36.98 -3.68,-12.871 -7.277,-22.301 -12.879,-33.75 l -4.8318,-9.871 5.5118,-5.532 c 9.824,-9.859 13.812,-20.882 13.117,-36.257 -0.305,-6.739 -0.844,-9.719 -2.793,-15.481 -2.289,-6.785 -2.363,-7.355 -1.492,-11.48 z m 57.98,24.113 c 0.524,-0.019 0.481,0.309 0.106,1.164 -0.344,0.789 -1.149,4.387 -1.789,7.992 -1.129,6.356 -1.113,6.668 0.433,10.321 l 1.59,3.769 -2.426,4.821 c -2.964,5.882 -4.355,11.781 -4.433,18.808 -0.078,6.914 1.207,12.152 4.844,19.789 l 2.957,6.207 -4.684,5.438 c -10.035,11.64 -22.762,33.679 -28.082,48.64 -1.102,3.098 -2.977,9.352 -4.172,13.899 -1.191,4.547 -2.176,7.758 -2.187,7.136 -0.114,-5.98 5.453,-60.187 7.949,-77.386 2.39,-16.516 11.5,-67.098 12.183,-67.68 0.282,-0.238 3.727,-0.828 7.657,-1.312 3.929,-0.485 7.965,-1.106 8.968,-1.379 0.493,-0.137 0.848,-0.215 1.086,-0.227 z M 89.1882,269.336 c 4.839,-0.012 11.8278,2.984 19.0458,8.383 6.012,4.5 8.809,7.98 7.227,9 -1.418,0.914 -6,2.14 -11.109,2.976 -9.1638,1.5 -17.5118,0.063 -20.3168,-3.492 -3.32,-4.219 -2.687,-13.344 1.098,-15.824 1.066,-0.695 2.441,-1.035 4.055,-1.043 z m 79.3898,12.914 c 3.016,0.051 5.402,0.805 6.899,2.301 3.785,3.777 2.867,12.359 -1.637,15.304 -3.172,2.079 -12.465,2.231 -17.926,0.297 -4.293,-1.519 -9.352,-4.3 -11.973,-6.586 -1.796,-1.566 -0.75,-2.679 5.442,-5.793 7.375,-3.711 14.164,-5.601 19.195,-5.523 z"
         style="fill:#191919;fill-rule:nonzero;stroke:none"
         transform="translate(-1.5042e-4)"
         id="path1" />
      <path
         d="M 7.80105,15.6412 C 12.3291,11.7622 20.4031,7.98524 28.1761,6.10624 c 3.934,-0.953 6.5,-1.938 6.332,-2.434 -0.687,-2.058 -5.226,-3.6950006 -10.195,-3.67200058 C 16.9851,0.0352394 11.3291,2.41024 6.10605,7.64524 1.21505,12.5472 -0.311948,16.7272 0.0510522,24.2392 c 0.0779998,1.613 0.4069998,1.328 2.3049978,-1.977 1.215,-2.121 3.668,-5.102 5.445,-6.621 z"
         style="fill:#ff0000;fill-rule:nonzero;stroke:none"
         transform="translate(122.187,9.19476)"
         id="path2" />
      <path
         d="m 25.1682,30.8138 c 5.114,-2.735 6.879,-5.489 6.879,-10.723 0,-8.672 -6.273,-16.58996 -15.199,-19.179961 -4.512,-1.308 -13.77703,-1.183 -16.289029,0.219001 -1.176,0.66 -0.719,1.211 3.530999,4.238 8.52803,6.07796 13.05103,13.60596 13.84003,23.03596 0.508,6.05 0.469,6.035 7.238,2.41 z"
         style="fill:#ff0000;fill-rule:nonzero;stroke:none"
         transform="translate(171.105,15.5342)"
         id="path3" />
      <path
         d="M 10.828,5.875 C 11.899,2.832 9.766,0 6.41,0 3.356,0 0,1.379 0,2.633 0,3.879 2.211,5.739 5.285,7.086 8.711,8.578 9.973,8.305 10.828,5.875 Z"
         style="fill:#ff0000;fill-rule:nonzero;stroke:none"
         transform="translate(153.156,40.949)"
         id="path4" />
      <path
         d="m 28.2566,26.551 c 1.715,-0.457 1.765,-0.668 1.285,-5.348 -0.652,-6.367 -1.875,-9.125 -6.012,-13.539 C 19.1236,2.957 13.1626,0 8.08056,0 c -3.5,0 -3.945,0.207 -5.32,2.441 -1.532,2.493 -3.179999,7.387 -2.6639993,7.903 0.1560003,0.16 1.2459993,-0.196 2.4249993,-0.789 3.368,-1.692 6.774,-2.078 10.78604,-1.219 6.449,1.383 9.722,6.785 8.839,14.598 -0.203,1.82 -0.187,3.488 0.036,3.71 0.546,0.547 3.879,0.497 6.074,-0.093 z"
         style="fill:#ff0000;fill-rule:nonzero;stroke:none"
         transform="translate(150.376,24.418)"
         id="path5" />
      <path
         d="m 30.512,38.0888 c 1.215,-1.281 3.832,-3.262 5.816,-4.402 l 3.61,-2.075 -4.739,-0.898 c -2.601,-0.496 -6.496,-1.742 -8.648,-2.773 -4.715,-2.258 -10.137,-8.051 -11.363,-12.141 -1.086,-3.621 -1.157,-9.41799 -0.157,-12.90199 0.891,-3.102 0.657,-3.45 -1.535,-2.278 C 9.02,3.01481 0,13.9438 0,16.9798 c 0,1.879 4.543,5.82 13.508,11.714 5.301,3.485 10.562,7.551 11.695,9.032 1.129,1.48 2.293,2.691 2.578,2.691 0.289,0 1.516,-1.047 2.731,-2.328 z"
         style="fill:#ff0000;fill-rule:nonzero;stroke:none"
         transform="translate(127.578,27.5792)"
         id="path6" />
      <path
         d="m 42.4611,41.7114 c -0.766,-0.844 -5.415,-4.258 -10.325,-7.586 -14.972,-10.133 -20.8,-17.649 -22.61301,-29.15297 -0.758,-4.792002 -0.98,-5.257002 -2.363,-4.863002 -9.832,2.805002 -9.477,15.655972 0.687,24.937972 4.69201,4.281 11.31701,7.906 25.24201,13.808 5.586,2.364 10.293,4.325 10.461,4.348 0.168,0.023 -0.324,-0.645 -1.089,-1.492 z"
         style="fill:#ff0000;fill-rule:nonzero;stroke:none"
         transform="translate(103.516,30.0076)"
         id="path7" />
      <path
         d="m 33.0313,16.2279 c 0.09,-5.153 -1.598,-8.97699 -5.457,-12.35999 -3.559,-3.120996 -7.289,-4.217996 -12.84,-3.7729955 C 9.20327,0.539914 4.55127,2.75091 1.93327,6.17691 c -3.39,4.44099 -2.968,4.77699 6.539,5.15999 7.35203,0.297 8.98903,0.61 12.48903,2.402 3.965,2.028 10.57,8.02 10.715,9.723 0.203,2.363 1.289,-3.437 1.355,-7.234 z"
         style="fill:#ff0000;fill-rule:nonzero;stroke:none"
         transform="translate(49.3397,62.8231)"
         id="path8" />
      <path
         d="m 6.0205,10.0884 c 1.578,-0.02 4.805,-3.96898 4.805,-5.87898 0,-1.047 -0.547,-2.508 -1.219,-3.249995 -1.117,-1.234 -1.406,-1.25 -3.43,-0.207 -1.21,0.628995 -3.21,2.726995 -4.441,4.663995 -2.105001,3.313 -2.156001,3.578 -0.898001,4.5 C 1.5715,10.4594 2.8525,10.7174 3.6805,10.4984 c 0.828,-0.222 1.879,-0.406 2.34,-0.41 z"
         style="fill:#ff0000;fill-rule:nonzero;stroke:none"
         transform="translate(49.0535,98.4936)"
         id="path9" />
      <path
         d="m 18.0179,58.4904 c 5.68,-2.832 12.746,-10.18 15.637,-16.25 1.367,-2.871 2.628,-7.668 3.656,-13.91 1.558,-9.461 1.598,-9.559 5.176,-13.695 3.988,-4.614 6.507,-9.49604 6.535,-12.65304 0.019,-2.448999 -0.758,-2.616999 -2.61,-0.57 -2.277,2.508 -7.441,5.152 -17.523,8.96104 -12.023,4.543 -17.32,7.203 -23.30896,11.699 -6.914,5.188 -6.98,5.5 -2.515,11.453 5.215,6.957 6.99196,11.817 7.42896,20.301 0.422,8.141 0.485,8.18 7.524,4.664 z"
         style="fill:#ff0000;fill-rule:nonzero;stroke:none"
         transform="translate(159.029,50.0486)"
         id="path10" />
      <path
         d="M 44.1006,39.512 C 45.2026,32.188 41.4676,22.664 35.1636,16.707 30.6436,12.438 24.9716,9.359 13.9836,5.211 9.84658,3.648 5.20258,1.836 3.66358,1.184 2.12358,0.535 0.63958,0 0.36258,0 c -1.633,0 2.597,17.137 5.773,23.383 1.985,3.898 8.37102,10.637 12.74202,13.437 5.711,3.66 13.004,5.91 19.317,5.965 l 5.41,0.043 z"
         style="fill:#ff0000;fill-rule:nonzero;stroke:none"
         transform="translate(116.981,70.25)"
         id="path11" />
      <path
         d="m 14.5806,12.6823 c 4.265,-1.417 6.136,-1.621 11.91,-1.292 3.769,0.214 7.445,0.632 8.168,0.929 2.89,1.184 0.965,-5.11704 -2.57,-8.41404 -6.165,-5.746 -19.332,-5.035 -25.21501,1.367 -1.774,1.934 -5.86,10.27404 -6.664005,13.61004 -0.496,2.047 -0.489,2.047 4.406005,-1.231 2.699,-1.808 7.18001,-4.043 9.96501,-4.969 z"
         style="fill:#ff0000;fill-rule:nonzero;stroke:none"
         transform="translate(202.931,100.38)"
         id="path12" />
      <path
         d="m 53.4066,43.316 c 0,-0.676 2.246,-6.613 4.996,-13.191 4.957,-11.879 4.989,-11.993 3.965,-15.118 -1.425,-4.351 -8.398,-11.394 -12.347,-12.464 -5.539,-1.508 -10.043,-1.055 -13.848,1.386 -5.863,3.766 -9.91,8.457 -11.035,12.785 -1.063,4.094 -0.539,7.008 1.398,7.747 0.75,0.289 1.598,-0.848 2.821,-3.797 1.953,-4.707 5.871,-9.438 9.261,-11.192 3.207,-1.656 9.004,-0.984 11.524,1.34 2.508,2.309 4.019,5.879 4.011,9.473 -0.011,3.191 -2.793,9.691 -4.98,11.629 -6.449,5.722 -20.473,5.816 -27.859,0.187 -7.786,-5.933 -7.145,-19.312 1.375,-28.558 L 25.9496,0 l -4.5,0.558 c -7.152,0.887 -12.371,3.168 -16.199,7.082 -9.23,9.442 -5.930001,23.149 7.066,29.344 4.813,2.293 9.247,3.168 23.036,4.543 4.347,0.43 9.593,1.246 11.66,1.809 5.211,1.414 6.394,1.41 6.394,-0.02 z"
         style="fill:#ff0000;fill-rule:nonzero;stroke:none"
         transform="translate(13.9954,81.309)"
         id="path13" />
      <path
         d="M 6.40095,48.957 C 15.272,41.886 22.26,34 25.549,27.359 28.198,22.004 28.452,20.961 28.44,15.441 28.428,10.664 28.077,8.734 26.768,6.269 24.604,2.195 21.733,0 18.573,0 c -2.211,0 -2.531,0.242 -2.531,1.91 0,5.004 -2.868,14.777 -8.24705,28.144 -5.933,14.731 -8.702996,23.289 -7.530996,23.289 0.348,0 3.109996,-1.972 6.136996,-4.386 z"
         style="fill:#ff0000;fill-rule:nonzero;stroke:none"
         transform="translate(76.185,77.766)"
         id="path14" />
      <path
         d="m 42.3821,18.7678 c 4.137,-0.586 8.879,-1.157 10.532,-1.27 l 3.008,-0.207 -2.368,-1.297 c -3.324,-1.816 -7.406,-2.59 -18.984,-3.597 -15.512,-1.352 -22.371,-3.692 -29.16801,-9.95 -2.73,-2.5150007 -3.504,-2.898001 -4.074,-2.019001 -3.59,5.523001 0.402,13.758001 8.32,17.160001 7.43001,3.195 16.27701,3.512 32.73401,1.18 z"
         style="fill:#ff0000;fill-rule:nonzero;stroke:none"
         transform="translate(9.59791,119.455)"
         id="path15" />
      <path
         d="m 29.8488,19.4583 c 1.898,-3.625 -0.824,-10.95303 -5.5,-14.80403 -9.559,-7.868 -26.40996,-5.203999 -24.140963,3.82 l 0.488,1.94503 3.192003,-1.44903 c 4.074,-1.844 10.57796,-1.922 14.08596,-0.164 3.929,1.97303 6.031,5.61303 6.031,10.44503 v 4.024 l 2.445,-0.996 c 1.344,-0.547 2.875,-1.817 3.399,-2.821 z"
         style="fill:#ff0000;fill-rule:nonzero;stroke:none"
         transform="translate(217.159,119.862)"
         id="path16" />
      <path
         d="M 11.368,6.32066 C 12.442,3.54366 11.379,0.731664 9.016,0.102664 7.012,-0.433336 0,1.25466 0,2.27066 c 0,1.672 6.836,6.004 9.61,6.089 0.527,0.016 1.316,-0.902 1.758,-2.039 z"
         style="fill:#ff0000;fill-rule:nonzero;stroke:none"
         transform="translate(220.855,135.495)"
         id="path17" />
      <path
         d="m 9.008,35.7233 c 6.988,-3.563 10.648,-9.574 10.676,-17.547 C 19.703,12.2893 17.758,7.89931 13.309,3.80131 9.957,0.719307 6.855,-0.343693 2.465,0.0943071 L 0,0.340307 2.711,3.72331 c 3.457,4.308 4.957,9.30399 4.941,16.47599 -0.007,5.051 -1.203,12.27 -2.648,16.02 -0.664,1.715 -0.231,1.664 4.004,-0.496 z"
         style="fill:#ff0000;fill-rule:nonzero;stroke:none"
         transform="translate(248.543,117.621)"
         id="path18" />
      <path
         d="M 18.594,38.738 C 25.277,30.867 27.84,22.929 27.144,12.253 26.902,8.535 26.305,4.257 25.816,2.746 L 24.93,0 18.078,6.933 C 14.305,10.746 8.699,16.07 5.613,18.765 L 0,23.664 5.254,28.855 c 3.637,3.59 5.828,6.516 7.117,9.496 1.023,2.367 2.086,4.313 2.367,4.32 0.278,0.008 2.012,-1.761 3.856,-3.933 z"
         style="fill:#ff0000;fill-rule:nonzero;stroke:none"
         transform="translate(81.379,116.977)"
         id="path19" />
      <path
         d="m 25.6463,32.7614 c 3.308,-1.047 7.34,-2.192 8.953,-2.54 3.012,-0.652 5.133,-2.793 6.113,-6.164 0.489,-1.683 0.391,-1.754 -1.629,-1.125 -3.507,1.082 -12.367,0.735 -16.961,-0.671 -8.242,-2.52 -14.70996,-9.446 -16.48396,-17.64099 -0.512,-2.375 -1.027,-4.438 -1.144,-4.5899998 C 4.16234,-0.40359 0.533337,3.92841 0.0563373,5.33141 -0.439663,6.78841 2.39234,12.7064 6.46634,18.7144 c 3.75796,5.543 6.51996,11.109 7.55896,15.242 l 0.859,3.406 2.371,-1.351 c 1.305,-0.743 5.082,-2.208 8.391,-3.25 z"
         style="fill:#ff0000;fill-rule:nonzero;stroke:none"
         transform="translate(203.858,128.927)"
         id="path20" />
      <path
         d="m 28.2561,49.465 c -0.641,-2.199 -3.105,-7.043 -5.477,-10.762 -8.484,-13.308 -10.894,-23.039 -8.257,-33.30802 1.5,-5.835995 1.527,-5.38699541 -0.317,-5.38699541 -3.832,0 -10.12098,5.58599541 -12.69498,11.27001541 -1.871004,4.14 -2.027004,10.433 -0.336,13.75 2.074,4.086 8.242,11.968 12.83198,16.402 4.895,4.73 14.731,12.723 15.149,12.305 0.148,-0.149 -0.254,-2.071 -0.899,-4.27 z"
         style="fill:#ff0000;fill-rule:nonzero;stroke:none"
         transform="translate(179.533,113.82)"
         id="path21" />
      <path
         d="m 38.984,24.4315 c 5.258,-0.851 14.426,-4.242 14.426,-5.332 0,-1.921 -4.02,-8.203 -7.004,-10.95299 -4.102,-3.777 -8.094,-5.883 -14.035,-7.401999 -4.149,-1.063 -5.336,-1.035 -15.91,0.390999 -6.286,0.847 -12.559,1.539 -13.942,1.539 -1.386,0 -2.519,0.3 -2.519,0.668 0,1.289 6.558,9.55399 9.847,12.40999 4.657,4.047 13.043,7.902 18.825,8.648 2.64,0.344 4.972,0.664 5.179,0.715 0.207,0.047 2.516,-0.258 5.133,-0.684 z"
         style="fill:#ff0000;fill-rule:nonzero;stroke:none"
         transform="translate(35.055,145.716)"
         id="path22" />
      <path
         d="m 9.234,41.3346 c 11.191,-3.692 23.402,-11.328 32,-20.008 6.848,-6.918 10.125,-12.57404 10.125,-17.48004 0,-3.149004 -0.945,-4.793004 -1.883,-3.274004 C 48.437,2.25256 40.105,5.72856 33.304,7.32256 12.039,12.3066 8.203,13.7246 3.968,18.1706 l -2.632,2.765 v 8.789 c 0,4.832 -0.301,9.907 -0.668,11.282 L 0,43.5026 2.925,42.9746 c 1.61,-0.289 4.45,-1.027 6.309,-1.64 z"
         style="fill:#ff0000;fill-rule:nonzero;stroke:none"
         transform="translate(217.637,157.591)"
         id="path23" />
      <path
         d="m 34.047,42.841 c 1.062,-2.34 1.629,-5.125 1.648,-8.078 C 35.746,27.165 33.449,24.243 16.226,9.97004 2.32,-1.55696 3.703,-0.638958 2.578,0.900042 1.32,2.61804 0,8.74304 0,12.853 c 0,9.539 6.648,22.629 14.117,27.8 4.469,3.09 11.363,5.715 15.074,5.739 3.141,0.015 3.289,-0.09 4.856,-3.551 z"
         style="fill:#ff0000;fill-rule:nonzero;stroke:none"
         transform="translate(174.969,154.577)"
         id="path24" />
      <path
         d="m 55.8189,37.743 c 2.781,-0.46 2.816,-0.503 1.504,-1.964 -2.742,-3.059 -12.875,-9.227 -22.75,-13.848 -14.028,-6.562 -13.774,-6.414 -15.028,-8.652 -1.023,-1.817 -0.996,-2.133 0.286,-3.55097 0.789,-0.871 2.339,-1.555 3.527,-1.555 4.183,0 21.156,7.68397 31.019,14.03497 2.84,1.832 5.325,3.164 5.528,2.961 0.797,-0.797 -4.172,-8.558 -8.336,-13.023 -5.496,-5.89097 -12.352,-9.41397 -21.84,-11.234971 -5.742,-1.097 -7.774,-1.16 -14.289,-0.421 C 9.13493,1.20403 1.29093,3.06003 0.0139335,4.14203 c -0.1679995,0.144 1.2029965,2.207 3.0429965,4.59 1.844,2.37897 4.469,6.09697 5.832,8.26097 8.73797,13.856 30.46897,23.465 46.92997,20.75 z"
         style="fill:#007f00;fill-rule:nonzero;stroke:none"
         transform="translate(32.8571,197.319)"
         id="path25" />
      <path
         d="m 31.2,28.3216 c 9.05,-2.625 17.277,-7.488 25.593,-15.125 l 4.516,-4.14503 -5.649,-2.695 c -3.109,-1.484 -9.031,-3.57 -13.164,-4.637 -6.304,-1.625001 -8.734,-1.890001 -15.062,-1.636001 -6.848,0.277 -8.09,0.566 -13.375,3.105001 C 8.727,5.74757 0,12.9816 0,14.8406 c 0,0.348 3.321,-0.5 7.375,-1.89 8.352,-2.856 20.137,-5.51203 24.535,-5.52803 3.571,-0.015 5.704,1.7 5.704,4.58603 0,2.676 -1.047,3.215 -9.215,4.739 -10.449,1.953 -27.645,7.285 -27.645,8.574 0,1.039 8.758,3.953 13.539,4.508 6.324,0.734 10.442,0.367 16.907,-1.508 z"
         style="fill:#007f00;fill-rule:nonzero;stroke:none"
         transform="translate(167.445,229.639)"
         id="path26" />
      <path
         d="m 5.39051,3.74616 c 1.863,-2.055 0.821,-3.999998 -1.988,-3.7189983 C 0.562512,0.312162 -0.855488,2.26116 0.546512,3.94916 c 1.320998,1.59 3.296998,1.504 4.843998,-0.203 z"
         style="fill:#000000;fill-rule:nonzero;stroke:none"
         transform="translate(126.226,289.012)"
         id="path27" />
    </g>
  </g>
</svg>
