<?xml version="1.0" encoding="UTF-8" standalone="no"?>
<!-- Created with Inkscape (http://www.inkscape.org/) -->

<svg
   version="1.1"
   id="svg1"
   width="128"
   height="128"
   viewBox="0 0 128 128"
   sodipodi:docname="icone-semente.svg"
   inkscape:version="1.4.2 (ebf0e940d0, 2025-05-08)"
   xmlns:inkscape="http://www.inkscape.org/namespaces/inkscape"
   xmlns:sodipodi="http://sodipodi.sourceforge.net/DTD/sodipodi-0.dtd"
   xmlns="http://www.w3.org/2000/svg"
   xmlns:svg="http://www.w3.org/2000/svg">
  <defs
     id="defs1" />
  <sodipodi:namedview
     id="namedview1"
     pagecolor="#ffffff"
     bordercolor="#000000"
     borderopacity="0.25"
     inkscape:showpageshadow="2"
     inkscape:pageopacity="0.0"
     inkscape:pagecheckerboard="0"
     inkscape:deskcolor="#d1d1d1"
     inkscape:zoom="3.1399812"
     inkscape:cx="64.490832"
     inkscape:cy="54.618161"
     inkscape:window-width="1366"
     inkscape:window-height="704"
     inkscape:window-x="0"
     inkscape:window-y="0"
     inkscape:window-maximized="1"
     inkscape:current-layer="g2">
    <inkscape:page
       x="0"
       y="0"
       width="128"
       height="128"
       id="page15"
       margin="0"
       bleed="0" />
  </sodipodi:namedview>
  <g
     id="g3"
     transform="rotate(37.852381,51.561964,39.679836)">
    <g
       id="g2"
       transform="matrix(1.8105614,0,0,1.8105614,11.88379,5.7433367)">
      <g
         id="g4"
         transform="translate(0.02140751,-0.74719844)">
        <path
           style="fill:#000000"
           d="m 41.333823,63.158476 c -0.304704,-0.978045 0.424641,-3.218731 1.7978,-5.523172 0.75621,-1.269075 2.259448,-3.772558 3.340532,-5.563294 2.287338,-3.788814 3.256966,-6.580887 4.63856,-13.356873 0.537206,-2.634706 1.60736,-6.792262 2.378121,-9.239012 2.511629,-7.97307 2.570536,-11.165545 0.164438,-8.911696 -0.844027,0.79062 -3.579112,5.661581 -5.316269,9.467837 -1.431911,3.137438 -2.06954,3.658871 -2.964132,2.423975 -0.570986,-0.788192 -0.579869,-1.110612 -0.141611,-5.139765 0.257176,-2.364351 0.961398,-6.287166 1.564937,-8.717365 1.462806,-5.890105 1.555645,-8.391616 0.343175,-9.2467952 C 46.030111,8.5699291 44.962082,10.938046 42.796126,18.982505 39.570034,30.964356 39.696737,30.666833 38.056195,30.112742 37.455886,29.909989 37.069092,29.519585 36.961017,29.007344 36.659928,27.580277 37.174374,21.175849 38.066124,15.249689 39.117249,8.2643993 39.072138,6.9851462 37.720456,5.4471294 36.501196,4.0597902 35.61041,3.9422265 35.05862,5.0958264 34.833573,5.56632 34.35782,8.1319001 34.00139,10.797115 c -0.356429,2.665215 -1.000365,7.024814 -1.43097,9.687996 -0.430605,2.663184 -0.848753,5.856495 -0.929217,7.096248 -0.08555,1.31817 -0.325634,2.454251 -0.578214,2.736151 -0.647104,0.722227 -1.745614,0.874419 -2.163186,0.299697 -0.19731,-0.271568 -0.537886,-3.146693 -0.756836,-6.389169 C 27.167247,9.7783798 27.069762,9.0816042 25.810252,7.5549124 24.952063,6.5146719 23.789558,6.4720017 23.259445,7.4612869 c -0.320163,0.5974782 -0.34988,1.6409283 -0.129897,4.5610941 0.15688,2.082511 0.234232,6.885524 0.171894,10.673363 -0.06234,3.787839 -0.13108,8.112379 -0.152759,9.610088 l -0.03942,2.723107 2.091786,0.9792 c 4.688954,2.19498 6.512148,4.210805 7.966618,8.80833 0.975007,3.081962 1.046974,3.787662 0.440605,4.320566 -0.775681,0.681706 -1.396911,0.203027 -1.697673,-1.308116 C 31.443456,45.481787 29.879791,41.916473 28.813996,40.768342 28.241697,40.15183 26.238244,38.859379 24.297821,37.854903 19.717865,35.484052 18.797027,34.534451 14.534524,27.786643 12.699663,24.881946 11.427315,23.797026 9.4882508,23.48373 8.1615197,23.269368 7.8836725,23.329548 7.3973796,23.936584 7.0538778,24.365377 6.9384594,24.776898 7.0995243,24.99858 c 0.6450175,0.887767 5.1146337,10.53982 7.6623567,16.546716 1.538114,3.626492 3.405235,7.538384 4.149157,8.693093 2.927002,4.543267 3.193759,5.093896 3.553789,7.335579 0.444305,2.766403 0.398887,3.707161 -0.199985,4.142278 -0.905523,0.657918 -1.317248,-0.04377 -1.67812,-2.85997 -0.253927,-1.981613 -0.598927,-3.168707 -1.180965,-4.063523 -0.452233,-0.695257 -1.44082,-2.224665 -2.196861,-3.398684 -0.75604,-1.174018 -2.733428,-5.313174 -4.394194,-9.198123 C 11.153936,38.310996 8.8153377,33.1028 7.617818,30.622175 6.4202983,28.141551 5.4510373,25.948682 5.4639048,25.749132 5.4767718,25.549582 5.3280221,25.09045 5.1333488,24.728839 4.6792466,23.885328 5.446653,22.675463 7.0554391,21.698537 c 0.9178788,-0.557375 1.3853672,-0.630933 2.6070104,-0.410206 0.8187145,0.14793 1.9379435,0.539327 2.4871735,0.86978 1.37165,0.825273 3.485627,3.363806 5.394614,6.478024 0.879882,1.435391 2.020406,3.060744 2.534499,3.611895 l 0.934715,1.002094 0.130019,-2.016349 c 0.248338,-3.851249 0.266292,-14.612219 0.03024,-18.121962 -0.30493,-4.5337586 -0.218812,-5.6850629 0.524842,-7.0165251 0.673665,-1.2061523 2.263219,-1.8359917 3.57335,-1.4158896 1.217827,0.390503 2.760465,2.1562665 3.361549,3.8477573 0.338331,0.9520852 0.691194,3.6345134 0.904351,6.8747714 0.192248,2.922427 0.440555,5.603268 0.551793,5.957422 0.231873,0.738231 1.201892,-4.769223 2.071045,-11.7587392 0.636639,-5.1196848 1.314631,-6.7771048 2.959214,-7.23409 2.117128,-0.5882936 4.999314,1.7426988 5.576533,4.5100676 0.285513,1.3688354 0.04364,3.7503326 -1.531414,15.0784176 -0.194431,1.398387 -0.259263,2.465784 -0.144034,2.371998 0.115193,-0.09379 0.693517,-1.932386 1.285163,-4.085769 2.479235,-9.023536 3.611578,-11.9215102 4.935325,-12.6308399 1.440213,-0.7717394 2.377919,-0.709447 3.350933,0.22259 1.763494,1.6892517 1.776098,4.1726499 0.05982,11.7866329 -0.629704,2.79358 -1.133115,5.565479 -1.118693,6.159775 0.02372,0.977594 0.183285,0.776784 1.674802,-2.107761 0.973384,-1.882491 2.191789,-3.71534 2.974892,-4.475135 1.177686,-1.142634 1.483308,-1.276711 2.727348,-1.196493 1.230695,0.07936 1.467871,0.218095 1.950719,1.141078 1.12194,2.144628 0.97393,3.045328 -2.285552,13.908567 -0.545092,1.816689 -1.156539,4.302495 -1.358772,5.524014 -0.532277,3.215053 -1.887798,8.329958 -2.762177,10.422766 -0.415764,0.995122 -1.665973,3.276342 -2.778242,5.069379 -3.236345,5.217159 -3.801031,6.257332 -4.301263,7.923082 -0.371223,1.236156 -0.623015,1.585125 -1.176195,1.630135 -0.41737,0.03396 -0.769521,-0.153499 -0.865184,-0.460559 z"
           id="path1"
           inkscape:transform-center-x="-36.326305"
           inkscape:transform-center-y="-33.907743" />
        <g
           id="g10"
           transform="matrix(0.09144789,0.01406304,-0.01406304,0.09144789,32.354707,-19.483457)"
           style="display:inline">
          <path
             d="m 25.4828,94.7775 c -7.922,-1.804 -14.043,-6.281 -19.07802,-13.961 -4.766,-7.269 -5.864,-11.058 -6.297,-21.671 -0.274,-6.793 -0.0430003,-10.758 0.894,-15.454 3.563,-17.777 14.95002,-35.34699 26.73502,-41.24999 7.898,-3.957 14.648,-3.116997 21.004,2.614 14.992,13.51099 22.105,42.09699 15.558,62.53499 -5.965,18.625 -23.246,30.73 -38.816,27.187 z"
             style="fill:#191919;fill-rule:nonzero;stroke:none"
             transform="translate(63.2362,-5.13423e-4)"
             id="path2" />
          <path
             d="m 13.6382,64.9887 c 0.321,-4.817 1.778,-12.102 4.723,-23.559 4,-15.566 4.281,-17.258 4.609,-27.516 0.196,-6.16003 0.032,-11.75303 -0.379,-12.81603 -0.714,-1.859004 -0.796,-1.813004 -6.281,3.77 -3.851,3.914 -6.51196,7.50703 -8.66796,11.68303 -10.57,20.516 -10.156,39.742 1.121,51.824 1.83996,1.973 3.58596,3.586 3.87896,3.586 0.297,0 0.746,-3.136 0.996,-6.972 z"
             style="fill:#7f7f00;fill-rule:nonzero;stroke:none"
             transform="translate(73.0568,11.7773)"
             id="path4" />
          <path
             d="M 7.12035,70.961 C 11.6753,68.816 17.8973,62.367 20.6353,56.953 c 4,-7.91 5.247,-20.476 3,-30.191 -2.23,-9.657 -7.601,-20.758 -12.031,-24.879 L 9.58135,0 9.92535,5.652 C 10.5423,15.883 9.16335,26.859 5.47935,41.039 0.655348,59.617 0.0303477,62.691 0.00334772,68.035 -0.0246523,72.43 0.0893477,72.746 1.66735,72.738 c 0.929,0 3.382,-0.804 5.453,-1.777 z"
             style="fill:#7f7f00;fill-rule:nonzero;stroke:none"
             transform="translate(95.5127,12.5)"
             id="path5" />
        </g>
        <g
           id="g9"
           transform="matrix(0.09144789,0.01406304,-0.01406304,0.09144789,10.891863,-4.3277479)">
          <path
             d="M 36.9057,99.867 C 30.1597,97.977 25.4877,94.981 18.7617,88.231 11.5777,81.024 7.53874,74.18 4.24174,63.625 -1.20326,46.215 -1.44926,17.906 3.75374,7.137 6.05474,2.371 10.2537,0 16.3947,0 c 5.91,0 10.429,1.735 17.898,6.867 16.664,11.454 32.738,33.665 36.414,50.325 4.172,18.914 -0.926,34.214 -13.723,41.195 -3.257,1.777 -5.046,2.207 -9.992,2.395 -3.754,0.14 -7.558,-0.204 -10.086,-0.915 z"
             style="fill:#191919;fill-rule:nonzero;stroke:none"
             transform="translate(2.57818e-4,67.906)"
             id="path1-5" />
          <path
             d="m 39.0931,71.1596 c 2.285,-5.258 2.758,-14.187 1.117,-21.242 -2.836,-12.215 -11.628,-26.09 -23.878,-37.695 C 10.2491,6.46057 -0.835923,-1.65643 0.050077,0.296565 c 0.153,0.34 2.192003,4.519005 4.532003,9.289005 2.335,4.76903 6.96002,15.96103 10.27702,24.87903 9.172,24.652 11.824,30.683 17.176,39.09 2.449,3.843 2.636,3.976 3.964,2.773 0.766,-0.695 2.157,-3.02 3.094,-5.168 z"
             style="fill:#7f7f00;fill-rule:nonzero;stroke:none"
             transform="translate(21.1059,77.9224)"
             id="path6" />
          <path
             d="M 31.0502,67.223 C 24.7332,54.848 22.3472,49.07 16.6752,32.387 12.2182,19.281 8.57724,10.516 4.93624,4.117 L 2.59324,0 1.51824,2.61 C -0.184761,6.738 -0.551761,26.902 0.913239,35.832 3.15924,49.531 9.25724,63.399 15.5342,69.082 c 5.57,5.043 13.328,8.719 18.652,8.832 l 2.348,0.051 z"
             style="fill:#7f7f00;fill-rule:nonzero;stroke:none"
             transform="translate(9.87976,81.16)"
             id="path7" />
        </g>
        <g
           id="g11"
           transform="matrix(0.09144789,0.01406304,-0.01406304,0.09144789,14.646261,-16.590939)">
          <path
             d="m 21.1215,95.5962 c -8.113,-1.598 -15.81996,-8.234 -18.97296,-16.34 -2.534996,-6.512 -2.881996,-19.062 -0.746,-26.867 5.039,-18.41 20.88296,-36.856 40.32796,-46.953 17.567,-9.121 28.735,-6.731 32.282,6.918 2.316,8.926 1.16,27.488 -2.543,40.711 -7.985,28.504 -29.457,46.648 -50.348,42.531 z"
             style="fill:#191919;fill-rule:nonzero;stroke:none"
             transform="translate(103.792,83.8218)"
             id="path3" />
          <path
             d="m 6.95353,63.4738 c 3.55097,-7.496 8.64097,-15.239 20.27697,-30.848 9.008,-12.086 14.938,-21.981 17.453,-29.12901 0.61,-1.73 0.977,-3.277004 0.817,-3.4370041 C 44.8795,-0.565214 36.2035,3.82879 30.4225,7.69179 23.0585,12.6138 13.3475,22.4378 8.75853,29.6098 c -6.012,9.395 -9.500003,20.821 -8.625003,28.246 0.363,3.063 3.218003,11.332 3.914003,11.332 0.109,0 1.418,-2.57 2.906,-5.714 z"
             style="fill:#7f7f00;fill-rule:nonzero;stroke:none"
             transform="translate(112.882,94.4602)"
             id="path8" />
          <path
             d="M 18.028,69.394 C 25.34,65.48 32.36,57.574 36.946,48.082 42.219,37.171 43.817,30.546 44.309,17.578 44.719,6.863 44.231,0 43.063,0 42.719,0 42.207,0.933 41.922,2.07 40.981,5.867 35.664,16.488 31.496,22.894 29.235,26.371 22.93,35.109 17.481,42.312 8.426,54.285 2.164,64.773 0.496,70.769 L 0,72.562 6.66,72.238 c 5.766,-0.281 7.293,-0.66 11.368,-2.844 z"
             style="fill:#7f7f00;fill-rule:nonzero;stroke:none"
             transform="translate(124.656,97.309)"
             id="path9" />
        </g>
        <g
           id="g12"
           transform="matrix(0.03719448,0.08471752,-0.08471752,0.03719448,55.50591,-6.1828274)">
          <path
             d="m 25.4828,94.7775 c -7.922,-1.804 -14.043,-6.281 -19.07802,-13.961 -4.766,-7.269 -5.864,-11.058 -6.297,-21.671 -0.274,-6.793 -0.0430003,-10.758 0.894,-15.454 3.563,-17.777 14.95002,-35.34699 26.73502,-41.24999 7.898,-3.957 14.648,-3.116997 21.004,2.614 14.992,13.51099 22.105,42.09699 15.558,62.53499 -5.965,18.625 -23.246,30.73 -38.816,27.187 z"
             style="fill:#191919;fill-rule:nonzero;stroke:none"
             transform="translate(63.2362,-5.13423e-4)"
             id="path10" />
          <path
             d="m 13.6382,64.9887 c 0.321,-4.817 1.778,-12.102 4.723,-23.559 4,-15.566 4.281,-17.258 4.609,-27.516 0.196,-6.16003 0.032,-11.75303 -0.379,-12.81603 -0.714,-1.859004 -0.796,-1.813004 -6.281,3.77 -3.851,3.914 -6.51196,7.50703 -8.66796,11.68303 -10.57,20.516 -10.156,39.742 1.121,51.824 1.83996,1.973 3.58596,3.586 3.87896,3.586 0.297,0 0.746,-3.136 0.996,-6.972 z"
             style="fill:#7f7f00;fill-rule:nonzero;stroke:none"
             transform="translate(73.0568,11.7773)"
             id="path11" />
          <path
             d="M 7.12035,70.961 C 11.6753,68.816 17.8973,62.367 20.6353,56.953 c 4,-7.91 5.247,-20.476 3,-30.191 -2.23,-9.657 -7.601,-20.758 -12.031,-24.879 L 9.58135,0 9.92535,5.652 C 10.5423,15.883 9.16335,26.859 5.47935,41.039 0.655348,59.617 0.0303477,62.691 0.00334772,68.035 -0.0246523,72.43 0.0893477,72.746 1.66735,72.738 c 0.929,0 3.382,-0.804 5.453,-1.777 z"
             style="fill:#7f7f00;fill-rule:nonzero;stroke:none"
             transform="translate(95.5127,12.5)"
             id="path12" />
        </g>
        <g
           id="g15"
           transform="matrix(0.08479405,-0.03701967,0.03701967,0.08479405,67.000067,29.5891)">
          <path
             d="m 25.4828,94.7775 c -7.922,-1.804 -14.043,-6.281 -19.07802,-13.961 -4.766,-7.269 -5.864,-11.058 -6.297,-21.671 -0.274,-6.793 -0.0430003,-10.758 0.894,-15.454 3.563,-17.777 14.95002,-35.34699 26.73502,-41.24999 7.898,-3.957 14.648,-3.116997 21.004,2.614 14.992,13.51099 22.105,42.09699 15.558,62.53499 -5.965,18.625 -23.246,30.73 -38.816,27.187 z"
             style="fill:#191919;fill-rule:nonzero;stroke:none"
             transform="translate(63.2362,-5.13423e-4)"
             id="path13" />
          <path
             d="m 13.6382,64.9887 c 0.321,-4.817 1.778,-12.102 4.723,-23.559 4,-15.566 4.281,-17.258 4.609,-27.516 0.196,-6.16003 0.032,-11.75303 -0.379,-12.81603 -0.714,-1.859004 -0.796,-1.813004 -6.281,3.77 -3.851,3.914 -6.51196,7.50703 -8.66796,11.68303 -10.57,20.516 -10.156,39.742 1.121,51.824 1.83996,1.973 3.58596,3.586 3.87896,3.586 0.297,0 0.746,-3.136 0.996,-6.972 z"
             style="fill:#7f7f00;fill-rule:nonzero;stroke:none"
             transform="translate(73.0568,11.7773)"
             id="path14" />
          <path
             d="M 7.12035,70.961 C 11.6753,68.816 17.8973,62.367 20.6353,56.953 c 4,-7.91 5.247,-20.476 3,-30.191 -2.23,-9.657 -7.601,-20.758 -12.031,-24.879 L 9.58135,0 9.92535,5.652 C 10.5423,15.883 9.16335,26.859 5.47935,41.039 0.655348,59.617 0.0303477,62.691 0.00334772,68.035 -0.0246523,72.43 0.0893477,72.746 1.66735,72.738 c 0.929,0 3.382,-0.804 5.453,-1.777 z"
             style="fill:#7f7f00;fill-rule:nonzero;stroke:none"
             transform="translate(95.5127,12.5)"
             id="path15" />
        </g>
      </g>
    </g>
  </g>
</svg>
