<?xml version="1.0" encoding="UTF-8" standalone="no"?>
<svg
   height="128pt"
   viewBox="0 0 128 128"
   width="128pt"
   version="1.1"
   id="svg16"
   sodipodi:docname="icone-o-espinho.svg"
   inkscape:version="1.4.2 (ebf0e940d0, 2025-05-08)"
   xmlns:inkscape="http://www.inkscape.org/namespaces/inkscape"
   xmlns:sodipodi="http://sodipodi.sourceforge.net/DTD/sodipodi-0.dtd"
   xmlns="http://www.w3.org/2000/svg"
   xmlns:svg="http://www.w3.org/2000/svg">
  <sodipodi:namedview
     id="namedview16"
     pagecolor="#ffffff"
     bordercolor="#000000"
     borderopacity="0.25"
     inkscape:showpageshadow="2"
     inkscape:pageopacity="0.0"
     inkscape:pagecheckerboard="0"
     inkscape:deskcolor="#d1d1d1"
     inkscape:document-units="pt"
     inkscape:zoom="2.4180993"
     inkscape:cx="81.675718"
     inkscape:cy="88.292485"
     inkscape:window-width="1366"
     inkscape:window-height="704"
     inkscape:window-x="0"
     inkscape:window-y="0"
     inkscape:window-maximized="1"
     inkscape:current-layer="Fundo" />
  <defs
     id="defs1" />
  <g
     inkscape:label="Fundo"
     id="Fundo"
     inkscape:groupmode="layer">
    <g
       id="g16"
       transform="matrix(0.31146772,0.29723204,-0.29723204,0.31146772,83.790064,-13.484577)"
       inkscape:transform-center-y="-57.535926"
       inkscape:transform-center-x="-54.010717">
      <path
         d="m 86.3617,363.664 c -1.918,-0.453 -3.312,-1.473 -4.113,-3.008 -0.609,-1.168 -0.723,-3.449 -0.895,-17.929 l -0.199,-16.59 -5.047,-6.942 c -2.777,-3.82 -6.203,-8.507 -7.621,-10.422 -1.933,-2.617 -2.57,-3.82 -2.57,-4.851 0,-1.805 1.238,-3.024 3.07,-3.024 1.727,0 6.219,1.348 9.68,2.907 l 2.586,1.16 0.113,-25.668 0.11,-25.668 -1.868,-2.84 c -1.023,-1.562 -3.695,-5.121 -5.929,-7.91 l -4.067,-5.07 -2.367,0.851 c -3.004,1.078 -12.461,1.481 -17.586,0.746 C 36.5967,237.535 22.6937,228.41 14.7057,216.465 10.7647,210.566 0.545703,188.77 0.0537025,185.207 -0.224297,183.199 0.596703,181.285 2.0607,180.531 c 1.583,-0.812 7.684,-1.406 14.563,-1.418 15.516,-0.019 30.156,4.094 41.285,11.59 3.125,2.106 8.469,7.715 10.59,11.113 4.488,7.192 5.863,12.559 5.938,23.164 l 0.054,7.688 3.113,4.113 3.118,4.114 0.273,-26.008 c 0.152,-14.305 0.274,-32.832 0.274,-41.176 v -15.172 l -1.555,-0.262 c -0.856,-0.144 -3.422,-0.504 -5.707,-0.8 -2.313,-0.297 -5.707,-1.098 -7.676,-1.805 -1.937,-0.695 -6.418,-2.184 -9.957,-3.305 -10.977,-3.48 -18.684,-7.953 -25.59,-14.859 -7.859,-7.863 -12.824,-17.395 -14.973,-28.735 -1.113,-5.898 -0.98,-18.8123 0.282,-27.2073 l 0.98,-6.507 -2.258,-2.368 c -6.168,-6.468 -8.855,-13.074 -8.777,-21.566 0.047,-5.453 0.957,-9.512 3.059,-13.684 5.679,-11.281 15.523,-17.441 29.886,-18.711 l 3.145,-0.277 1.711,-2.586 c 3.172,-4.805 9.851,-10.26898 15.672,-12.83198 5.152,-2.264997 8.113,-2.807997 16.429,-2.9999973 12.114,-0.2809997 19.559,1.1169973 27.4693,5.1639973 2.024,1.035 4.567,2.582 5.656,3.438 l 1.977,1.55398 1.777,-0.60898 c 7.649,-2.621 20.399,-2.137 28.637,1.09398 11.652,4.566 19.492,16.054 20.559,30.144 l 0.269,3.535 2.918,1.129 c 8.559,3.301 15.309,10.801 17.512,19.454 0.851,3.355 0.828,10.949 -0.043,13.874 -2.481,8.317 -9.024,15.426 -21.067,22.8873 -0.484,0.301 -0.843,1.77 -1.308,5.367 -1.094,8.418 -2.961,14.137 -6.719,20.559 -5.746,9.824 -15.484,18.91 -25.629,23.918 -5.851,2.887 -14.039,5.48 -21.281,6.742 l -4.102,0.715 -0.273,26.637 c -0.371,36.035 -0.348,52.187 0.082,51.925 0.195,-0.121 2.18,-2.457 4.406,-5.191 l 4.051,-4.969 -0.672,-4.304 c -2.73,-17.426 4.059,-32.871 18.766,-42.711 5.566,-3.723 9.191,-5.399 15.801,-7.305 8.589,-2.48 21.211,-3.578 30.73,-2.676 8.137,0.77 9.543,1.414 9.543,4.367 0,3.715 -4.723,19.145 -7.824,25.563 -2.516,5.215 -8.949,14.894 -12.035,18.117 -6.157,6.426 -15.489,11.703 -24.664,13.938 -4.903,1.195 -12.657,1.472 -18.336,0.648 -2.512,-0.359 -4.938,-0.766 -5.395,-0.894 -0.648,-0.184 -1.203,0.246 -2.492,1.941 -0.91,1.195 -3.945,5.031 -6.738,8.519 l -5.082,6.348 0.046,7.496 c 0.024,4.125 0.165,9.192 0.309,11.262 l 0.266,3.762 8.09,-3.243 c 5.144,-2.058 8.394,-3.148 8.921,-2.988 1.383,0.414 2.282,1.457 2.282,2.645 0,1.41 -2.586,5.152 -16.301,23.593 l -3.59,4.829 -0.023,26.757 c -0.012,14.715 -0.188,27.899 -0.391,29.293 -0.922,6.403 -4.1763,9.946 -10.3163,11.243 -2.446,0.515 -3.399,0.527 -5.364,0.062 z"
         style="fill:#191919;fill-rule:nonzero;stroke:none"
         transform="translate(0.00129747,2.77286e-4)"
         id="path1" />
      <path
         d="m 7.043,19.7386 c 2.52,-4.234 7.02,-7.515 12.114,-8.836 3.457,-0.894 10.05,-0.8 14.062,0.207 4.129,1.036 8.535,3.219 11.238,5.575 l 2.09,1.82 0.477,-1.578 c 0.703,-2.336 0.578,-4.82 -0.336,-6.598 C 44.762,6.57458 38.121,2.42258 31.332,0.735582 24.551,-0.948418 17.02,0.285582 10.418,4.16458 7.114,6.10658 1.95,10.8246 0.797,12.9576 L 0,14.4306 l 1.032,1.953 c 0.984,1.867 3.964,5.473 4.507,5.453 0.141,-0.004 0.821,-0.949 1.504,-2.098 z"
         style="fill:#ff0000;fill-rule:nonzero;stroke:none"
         transform="translate(61.988,28.4524)"
         id="path2" />
      <path
         d="M 16.418,12.496 C 21.082,11.676 26.589,9.57 29.589,7.465 l 1.168,-0.82 -0.89,-0.95 C 28.765,4.531 25.074,2.547 21.3,1.094 18.984,0.199 17.781,0 14.73,0 9.168,0.004 7.093,0.93 3.125,5.18 1.406,7.02 0,8.66 0,8.82 c 0,0.317 2.894,1.641 6.847,3.129 2.766,1.043 5.782,1.215 9.571,0.547 z"
         style="fill:#ff0000;fill-rule:nonzero;stroke:none"
         transform="translate(72.973,45.625)"
         id="path3" />
      <path
         d="m 8.03658,40.44 c 0.777,-5.031 1.828,-7.809 4.19902,-11.113 5.176,-7.223 14.719,-13.262 23.61,-14.946 8.867,-1.679 20.34,0.938 27.715,6.325 l 1.937,1.418 1.547,-1.043 c 0.848,-0.575 1.809,-1.043 2.133,-1.043 1.187,0 -0.649,-3.621 -3.703,-7.301 -4.828,-5.81701 -12.246,-9.94501 -21.485,-11.949011 -5.195,-1.129 -15.949,-1.028 -20.535,0.195 C 16.3646,2.86599 9.19258,7.49899 5.86458,12.346 c -1.593,2.317 -4.824,9.864 -5.405998,12.625 -0.687,3.258 -0.586,11.207 0.195,15.297 C 1.44658,44.432 3.00958,48.6 5.23558,52.499 l 1.621,2.836 0.266,-5.368 c 0.149,-2.949 0.559,-7.238 0.914,-9.527 z"
         style="fill:#ff0000;fill-rule:nonzero;stroke:none"
         transform="translate(44.7484,7.14201)"
         id="path4" />
      <path
         d="m 19.957,33.872 c 2.804,-0.964 7.183,-3.921 10.789,-7.289 2.969,-2.777 3.98,-4.046 5.242,-6.586 1.441,-2.906 1.559,-3.417 1.551,-6.675 C 37.527,10.103 37.402,9.56396 36.109,7.16896 33.789,2.87996 28.875,-0.0610381 24.129,9.61868e-4 22.91,0.0169619 21.851,0.0869619 21.781,0.161962 c -0.074,0.074 0.34,1.526998 0.914,3.229998 0.914,2.691 1.023,3.598 0.852,6.93004 -0.172,3.347 -0.387,4.207 -1.7,6.847 -1.773,3.575 -4.246,6.035 -8.371,8.328 C 10.64,27.08 2.164,30.22 0.726,30.224 0.324,30.228 0,30.384 0,30.576 c 0,0.328 2.82,1.254 9.129,2.988 3.109,0.855 8.761,1.019 10.828,0.308 z"
         style="fill:#ff0000;fill-rule:nonzero;stroke:none"
         transform="translate(93.305,34.108)"
         id="path5" />
      <path
         d="m 26.805,52.2246 c 9.769,-10.082 13.531,-22.821 9.89,-33.516 C 32.523,6.43859 21.457,-0.764414 8.051,0.0645856 5.766,0.204586 3.019,0.556586 1.949,0.841586 L 0,1.36459 l 1.461,2.27 c 0.805,1.25 2.164,3.758 3.019,5.574 1.504,3.18401 1.637,3.32801 3.618,4.01201 2.925,1.011 6.808,3.617 8.535,5.738 5.004,6.133 6.277,14.852 3.285,22.496 l -1.309,3.348 0.278,7.054 0.281,7.055 2.379,-1.859 c 1.308,-1.024 3.676,-3.196 5.258,-4.828 z"
         style="fill:#ff0000;fill-rule:nonzero;stroke:none"
         transform="translate(116.586,14.8734)"
         id="path6" />
      <path
         d="m 58.0999,67.898 c -2.758,-4.035 -7.539,-9.156 -14.156,-15.176 -11.438,-10.402 -16.164,-17.386 -18.785,-27.75 -0.801,-3.164 -0.915,-4.711 -0.911,-12.293 0.008,-6.953 0.137,-9.066 0.684,-10.672 L 25.6159,0 23.2719,0.293 C 14.1349,1.429 6.67392,6.511 2.90092,14.171 0.521922,19.003 -0.189078,22.109 0.0409216,26.699 0.341922,32.707 2.54492,37.574 7.03692,42.164 c 4.31298,4.41 8.35198,6.472 22.36798,11.41 3.765,1.328 8.898,3.453 11.41,4.722 4.578,2.317 14.086,8.368 16.804,10.7 2.161,1.851 2.293,1.55 0.481,-1.098 z"
         style="fill:#ff0000;fill-rule:nonzero;stroke:none"
         transform="translate(13.2791,25.852)"
         id="path7" />
      <path
         d="m 29.9025,44.0371 c 4.664,-3.031 14.25,-7.773 21.785,-10.781 7,-2.793 13.883,-6.223 15.739,-7.848 2.293,-2.004 3.16,-5.785 2.468,-10.797 l -0.257,-1.863 -3.164,2.262 c -1.743,1.246 -4.243,2.804 -5.555,3.461 -4.645,2.336 -11.02,3.097 -16.906,2.023 -5.621,-1.027 -16.743,-5.344 -29.274,-11.35904 -5.19498,-2.496 -11.52298,-6.723 -12.82398,-8.567003 -0.469,-0.6640001 -0.656,-0.73 -0.809,-0.281 -1.445003,4.250003 -1.476003,10.149043 -0.078,14.086043 1.242,3.504 1.782,4.152 8.407,10.191 8.63198,7.868 14.54998,15.832 15.31998,20.622 0.168,1.042 0.472,1.695 0.746,1.589 0.254,-0.097 2.234,-1.328 4.402,-2.738 z"
         style="fill:#ff0000;fill-rule:nonzero;stroke:none"
         transform="translate(58.8355,54.5839)"
         id="path8" />
      <path
         d="m 8.301,65.9094 c 8.843,-5.761 17.293,-8.441 36.718,-11.64 11.547,-1.903 15.985,-2.824 22.176,-4.614 12.067,-3.48 20.61,-8.156 26.797,-14.656 7.317,-7.687 8.942,-15.429 4.969,-23.683 C 97.223,7.70639 95.219,5.36339 92.035,3.21439 89.68,1.62039 85.934,-0.262612 85.719,0.0303884 85.664,0.109388 85.191,1.37839 84.668,2.85139 c -1.156,3.254 -5.313,10.62901 -8.02,14.23001 -2.894,3.852 -7.402,8.528 -11.023,11.438 -7.258,5.832 -14.32,9.668 -27.246,14.808 -15.465,6.149 -22.883,10.508 -30.106,17.707 -2.828,2.821 -5.07,5.504 -6.324,7.579 -1.07,1.769 -1.949,3.308 -1.949,3.421 0,0.114 1.168,-0.761 2.594,-1.945 1.425,-1.184 3.996,-3.062 5.707,-4.18 z"
         style="fill:#ff0000;fill-rule:nonzero;stroke:none"
         transform="translate(75.461,51.5746)"
         id="path9" />
      <path
         d="M 44.726,66.867 C 40.812,57.383 43.418,43.015 51.031,32.129 l 1.844,-2.641 -1.54,-2.223 C 48.621,23.34 43.128,18.847 34.746,13.683 28.062,9.57 21.906,6.757 14.441,4.406 10.789,3.257 6.46104,1.797 4.82004,1.16 L 1.83904,0 1.41004,1.902 C 0.277042,6.89 -0.00395809,9.668 4.19113e-5,15.777 0.00704191,23.371 0.699042,28.043 2.64004,33.566 6.87804,45.644 14.929,54.797 26.734,60.961 c 4.746,2.476 7.168,3.464 12.809,5.23 5.128,1.602 5.593,1.66 5.183,0.676 z"
         style="fill:#ff0000;fill-rule:nonzero;stroke:none"
         transform="translate(22.227,80.555)"
         id="path10" />
      <path
         d="M 25.101,45.367 C 42.226,43.614 56.289,37.45 66.062,27.414 72.777,20.52 76.918,11.883 77.769,2.996 77.996,0.614 77.941,0 77.492,0 77.183,0 75.351,0.457 73.422,1.012 67.301,2.778 58.906,4.582 45.433,7.032 27.461,10.297 19.539,13.102 11.679,18.996 5.793,23.41 0,30.668 0,33.633 c 0,1.789 2.461,6.66 4.539,8.988 2.027,2.27 3.383,2.75 8.945,3.161 3.973,0.296 5.09,0.257 11.617,-0.415 z"
         style="fill:#ff0000;fill-rule:nonzero;stroke:none"
         transform="translate(73.387,106.445)"
         id="path11" />
      <path
         d="m 23.222,47.8411 c 6.442,-1.68 9.946,-3.418 15.676,-7.777 7.539,-5.731 14.836,-16.527 17.938,-26.543 1.929,-6.231 3.675,-12.578 3.508,-12.746 -0.086,-0.086 -2.637,-0.352 -5.672,-0.586 -14.258,-1.117 -30.121,2.789 -39.61,9.746 -7.40995,5.437 -12.62495,13.41 -14.483954,22.148 -0.688,3.227 -0.789,8.817 -0.156,8.606 0.238,-0.078 2.336004,-2.266 4.668004,-4.863 6.88995,-7.68 13.23795,-12.793 25.10895,-20.219 5.398,-3.379 6.973,-4.18 7.789,-3.977 2.738,0.684 3.566,3.781 1.52,5.68 -0.625,0.578 -4.184,3.027 -7.907,5.441 -8.668,5.621 -12.625,8.625 -17.461,13.254 -3.73,3.567 -10.18695,11.321 -9.77295,11.735 0.109,0.105 1.27,0.437 2.578,0.73 3.37495,0.762 12.26995,0.418 16.27695,-0.629 z"
         style="fill:#007f00;fill-rule:nonzero;stroke:none"
         transform="translate(116.551,177.151)"
         id="path12" />
      <path
         d="m 53.481,46.1911 c 0.781,-0.257 1.582,-0.617 1.781,-0.796 0.481,-0.43 -4.047,-5.922 -8.426,-10.223 -4.515,-4.434 -8.812,-7.617 -16.773,-12.426 -8.363,-5.051 -9.738,-6.769 -7.336,-9.16 1.594,-1.586 1.683,-1.566 8.176,1.84 11.035,5.789 17.398,10.765 25.59,20.019 0.871,0.985 1.691,1.684 1.824,1.551 0.523,-0.519 -0.774,-7.035 -2.09,-10.527 -2.031,-5.379 -3.774,-8.047 -7.969,-12.219 C 42.598,8.62514 35.985,5.14814 25.856,2.47314 17.7,0.320145 6.2,-0.640855 1.805,0.457145 L 0,0.910145 0.782,3.72314 c 1.105,3.965 2.093,6.35496 5.558,13.41796 4.125,8.41 6.61,12.047 11.574,16.937 5.914,5.824 13.168,10.274 19.145,11.746 4.949,1.223 13.297,1.407 16.422,0.367 z"
         style="fill:#007f00;fill-rule:nonzero;stroke:none"
         transform="translate(9.152,185.707)"
         id="path13" />
      <path
         d="M 4.648,2.13115 C 5.304,1.02215 5.789,0.0691482 5.722,0.00614815 5.656,-0.0558518 4.34,0.358148 2.8,0.928148 L 0,1.96315 v 7.465 l 1.722,-2.645 c 0.95,-1.453 2.266,-3.546 2.926,-4.652 z"
         style="fill:#7f7f00;fill-rule:nonzero;stroke:none"
         transform="translate(102.848,276.322)"
         id="path14" />
      <path
         d="M 3.57903,3.602 C 3.45403,2.047 3.24703,1.727 1.83303,0.918 0.950026,0.415 0.133026,0 0.0120255,0 -0.104974,0 0.645026,1.208 1.68403,2.684 c 1.035,1.477 1.918,2.684 1.961,2.684 0.039,0 0.008,-0.793 -0.066,-1.766 z"
         style="fill:#7f7f00;fill-rule:nonzero;stroke:none"
         transform="translate(77.351,309.98)"
         id="path15" />
      <path
         d="m 4.96347,195.215 c 0.543,-0.504 1.16,-1.496 1.379,-2.199 0.719,-2.34 0.973,-62.527 0.457,-109.6557 -0.313,-28.719 -0.363,-52.535 -0.141,-64.285 l 0.352,-18.66503 -2.074,-0.257 c -1.145,-0.1410004 -2.707,-0.1960004 -3.481,-0.1170004 L 0.0494704,0.17227 0.00247036,97.8093 C -0.0205296,152.868 0.11947,195.696 0.32247,196.012 c 0.532,0.824 3.442,0.324 4.641,-0.797 z"
         style="fill:#007f00;fill-rule:nonzero;stroke:none"
         transform="translate(88.1615,160.152)"
         id="path16" />
    </g>
  </g>
</svg>
