<?xml version="1.0" encoding="UTF-8" standalone="no"?>
<svg
   height="128"
   viewBox="0 0 128 128"
   width="128"
   version="1.1"
   id="svg6"
   sodipodi:docname="icone-o-broto.svg"
   inkscape:version="1.4.2 (ebf0e940d0, 2025-05-08)"
   xmlns:inkscape="http://www.inkscape.org/namespaces/inkscape"
   xmlns:sodipodi="http://sodipodi.sourceforge.net/DTD/sodipodi-0.dtd"
   xmlns="http://www.w3.org/2000/svg"
   xmlns:svg="http://www.w3.org/2000/svg">
  <sodipodi:namedview
     id="namedview6"
     pagecolor="#ffffff"
     bordercolor="#000000"
     borderopacity="0.25"
     inkscape:showpageshadow="2"
     inkscape:pageopacity="0.0"
     inkscape:pagecheckerboard="0"
     inkscape:deskcolor="#d1d1d1"
     inkscape:document-units="pt"
     inkscape:zoom="1.3516187"
     inkscape:cx="72.875582"
     inkscape:cy="126.14504"
     inkscape:window-width="1366"
     inkscape:window-height="704"
     inkscape:window-x="0"
     inkscape:window-y="0"
     inkscape:window-maximized="1"
     inkscape:current-layer="Fundo" />
  <defs
     id="defs1" />
  <g
     inkscape:label="Fundo"
     id="Fundo"
     inkscape:groupmode="layer"
     transform="translate(5.3761759e-4)">
    <g
       id="g6"
       transform="matrix(0.45417387,0.3500986,-0.3500986,0.45417387,95.515088,-7.9017419)"
       inkscape:transform-center-x="-48.81434"
       inkscape:transform-center-y="-52.573307">
      <path
         d="m 12.8955,277.547 c -3.41096,-0.836 -5.06696,-2.406 -5.07096,-4.801 0,-0.668 1.082,-4.219 2.43396,-7.992 7.554,-21.109 14.676,-48.535 18.469,-71.125 2.246,-13.367 5.218,-40.77 6.211,-57.227 0.496,-8.234 0.785,-20.992 0.527,-23.214 l -0.231,-1.954 -1.847,-0.355 c -9.039,-1.754 -15.356,-5.07 -21.649,-11.356 C 5.52054,93.305 1.56654,85.863 0.293537,77.977 c -0.594,-3.7 -0.2419996,-12.868 0.656,-17.012 1.446003,-6.68 2.699003,-9.625 9.894963,-23.246 2.363,-4.473 3.844,-8.469 4.683,-12.649 0.434,-2.144 0.512,-3.718 0.36,-7.316 -0.106,-2.524 -0.282,-5.031 -0.395,-5.574 -0.297,-1.457 0.641,-2.446 2.512,-2.657 1.371,-0.152 1.902,0.047 6.965,2.653 3.011,1.551 5.593,2.773 5.738,2.719 0.145,-0.055 2.258,-2.532 4.699,-5.504 C 41.2895,2.227 43.8405,0 46.1565,0 c 1.406,0 4.121,1.629 5.86,3.52 1.566,1.699 2.199,2.578 4.644,6.46 l 0.86,1.36 1.906,-0.77 c 4.379,-1.769 10.105,-2.781 11.515,-2.039 1.512,0.793 1.747,1.848 1.168,5.192 -1.316,7.632 -0.086,13.363 5.414,25.226 7.375,15.899 8.961,21.563 8.946,31.934 -0.012,6.105 -0.43,8.969 -1.996,13.656 -3.356,10.031 -10.989,18.762 -20.563,23.516 -2.976,1.48 -7.277,2.972 -9.656,3.347 l -1.297,0.207 v 4.278 c 0,3.675 -0.531,14.754 -1.598,33.359 -0.148,2.594 -0.25,4.742 -0.226,4.777 0.027,0.036 1.07,-1.492 2.324,-3.398 2.949,-4.48 8.301,-9.902 12.566,-12.727 10.114,-6.695 23.047,-10.441 36.4425,-10.554 l 5.191,-0.047 0.696,0.918 c 0.601,0.797 0.683,1.316 0.636,3.93 -0.152,8.437 -3.242,21.714 -6.836,29.382 -6.8515,14.629 -18.8515,24.442 -34.1525,27.934 -1.934,0.441 -4.145,0.566 -10.441,0.594 l -7.989,0.031 -2.187,3.141 c -1.203,1.726 -2.274,3.621 -2.375,4.211 -0.981,5.5 -4.047,21.941 -4.844,25.941 -2.91,14.66 -8.027,32.519 -12.883,44.98 -2.078,5.329 -2.617,6.407 -3.711,7.43 -2.191,2.047 -6.574,2.77 -10.675,1.758 z"
         style="fill:#191919;fill-rule:nonzero;stroke:none"
         transform="translate(-5.37354e-4)"
         id="path1" />
      <path
         d="m 8.726,16.575 c 0.953,-1.434 3.133,-4.032 4.844,-5.77 L 16.676,7.641 15.488,5.309 C 14.207,2.789 11.957,0 11.203,0 10.39,0 4.879,5.192 2.394,8.297 L 0,11.286 2.101,13.528 c 1.153,1.234 2.653,3.008 3.328,3.945 0.676,0.934 1.301,1.703 1.395,1.707 0.09,0.004 0.949,-1.168 1.902,-2.605 z"
         style="fill:#ff0000;fill-rule:nonzero;stroke:none"
         transform="translate(35.344,7.152)"
         id="path2" />
      <path
         d="M 8.246,89.859 C 20.524,86.687 29.41,78.261 32.82,66.558 35.168,58.511 34.691,49.382 31.418,39.605 30.727,37.55 28.524,32.218 26.516,27.757 21.098,15.722 19.453,10.39 19.078,3.625 L 18.875,0 17.207,0.492 C 11.363,2.218 5.145,7.457 1.027,14.117 0.465,15.031 0,16 0,16.273 c 0,0.273 0.965,2.012 2.141,3.867 2.91,4.59 7.347,13.621 8.925,18.176 4.192,12.098 4.696,23.73 1.536,35.269 -1.555,5.672 -4.528,11.457 -8.231,16.012 L 3.516,90.656 H 4.34 c 0.453,0 2.211,-0.36 3.906,-0.797 z"
         style="fill:#ff0000;fill-rule:nonzero;stroke:none"
         transform="translate(46.414,15.02)"
         id="path3" />
      <path
         d="m 35.7249,88.633 c 3.403,-1.414 8.543,-8.461 11.098,-15.219 0.457,-1.203 1.234,-3.91 1.73,-6.015 0.821,-3.496 0.903,-4.403 0.911,-10.336 0.011,-6.91 -0.27,-9.09 -1.981,-15.422 C 44.2839,29.809 35.9869,16.422 25.9249,6.864 22.9089,3.996 17.8699,0 17.2759,0 c -0.144,0 -0.371,0.914 -0.504,2.032 -0.394,3.402 -1.664,8.984 -2.914,12.828 -0.789,2.422 -2.746,6.715 -5.85903,12.844 -2.567,5.058 -5.074,10.433 -5.571,11.937 -4.902,14.93 -2.3860036,27.551 7.59403,38.125 5.965,6.32 13.215,9.984 21.672,10.961 1.332,0.152 2.535,0.297 2.676,0.32 0.14,0.024 0.75,-0.16 1.355,-0.414 z"
         style="fill:#ff0000;fill-rule:nonzero;stroke:none"
         transform="translate(5.59513,17.234)"
         id="path4" />
      <path
         d="m 16.749,51.5639 c 11.547,-2.27 20.656,-8.442 27.387,-18.559 4.926,-7.398 7.75,-15.75 9.234,-27.29698 0.782,-6.089999 0.895,-5.70299917 -1.64,-5.70299917 -6.953,0 -16.25,1.93799917 -23.043,4.80499917 C 13.155,11.3639 4.86198,22.7389 0.697977,43.1889 c -0.453,2.222 -0.761,4.097 -0.687,4.172 0.074,0.074 0.769,-0.708 1.551003,-1.735 5.324,-7.012 14.43302,-15.937 25.65602,-25.137 2.695,-2.21 5.617,-4.652 6.492,-5.425 1.094,-0.969 1.883,-1.403 2.535,-1.403 1.34,0 2.254,1.028 2.254,2.539 0,1.133 -0.258,1.493 -3.023,4.196 -1.664,1.629 -4.942,4.535 -7.278,6.461 -9.578,7.882 -16.695,14.675 -20.76102,19.804 -1.922,2.422 -3.606,4.84 -3.606,5.172 0,0.668 9.13702,0.477 12.91802,-0.269 z"
         style="fill:#007f00;fill-rule:nonzero;stroke:none"
         transform="translate(49.45,132.659)"
         id="path5" />
      <path
         d="m 4.84903,159.504 c 1.238,-0.637 1.668,-1.364 3.391,-5.719 C 15.638,135.07 23.236,102.191 27.619,69.906 31.091,44.316 32.537,27.886 32.908,9.672 L 33.107,0 h -5.563 l -0.21,2.191 c -0.114,1.207 -0.211,5.195 -0.215,8.863 -0.008,3.664 -0.153,8.86 -0.332,11.543 -0.571,8.571 -2.578,29.375 -3.594,37.246 -3.965,30.719 -12.293,66.942 -21.83997,94.993 -1.585996,4.66 -1.608996,4.781 -0.929996,4.914 1.574996,0.304 3.566996,0.195 4.425996,-0.246 z"
         style="fill:#007f00;fill-rule:nonzero;stroke:none"
         transform="translate(14.061,112.18)"
         id="path6" />
    </g>
  </g>
</svg>
