<?xml version="1.0" encoding="UTF-8" standalone="no"?>
<svg
   height="128pt"
   viewBox="0 0 128 128"
   width="128pt"
   version="1.1"
   id="svg21"
   sodipodi:docname="icone-o-mestre-jardineiro.svg"
   inkscape:version="1.4.2 (ebf0e940d0, 2025-05-08)"
   xmlns:inkscape="http://www.inkscape.org/namespaces/inkscape"
   xmlns:sodipodi="http://sodipodi.sourceforge.net/DTD/sodipodi-0.dtd"
   xmlns="http://www.w3.org/2000/svg"
   xmlns:svg="http://www.w3.org/2000/svg">
  <sodipodi:namedview
     id="namedview21"
     pagecolor="#ffffff"
     bordercolor="#000000"
     borderopacity="0.25"
     inkscape:showpageshadow="2"
     inkscape:pageopacity="0.0"
     inkscape:pagecheckerboard="0"
     inkscape:deskcolor="#d1d1d1"
     inkscape:document-units="pt"
     inkscape:zoom="1.287374"
     inkscape:cx="96.708491"
     inkscape:cy="167.39502"
     inkscape:window-width="1366"
     inkscape:window-height="704"
     inkscape:window-x="0"
     inkscape:window-y="0"
     inkscape:window-maximized="1"
     inkscape:current-layer="Fundo" />
  <defs
     id="defs1" />
  <g
     inkscape:label="Fundo"
     id="Fundo"
     inkscape:groupmode="layer">
    <g
       id="g21"
       transform="matrix(0.2744767,0,0,0.2744767,1.7966177e-4,8.7256331)">
      <path
         d="m 1.695,0 c 1.39,0 13.222,6.336 17.5,9.371 2.48,1.758 6.992,5.817 10.031,9.016 19.066,20.078 28.648,49.801 35.309,109.551 1.382,12.406 2.023,20.383 3.691,45.949 0.113,1.738 0.223,3.187 0.34,4.402 -0.77,0.051 -1.906,0.121 -3.836,0.254 -5.875,0.203 -7.918,0.36 -13.941,0.199 -7.043,-0.183 -14.075,-0.941 -21.114,-1.527 -0.051,-1.68 -0.183,-3.902 -0.386,-6.902 -0.403,-5.973 -1.407,-21.496 -2.231,-34.496 -0.82,-13 -2.164,-32.754 -2.984,-43.895 C 23.253,80.778 22.585,70.938 22.578,70.055 22.554,65.711 17.195,63.571 14.097,66.668 l -1.574,1.571 2.059,29.101 c 1.132,16.004 2.203,33.149 2.382,38.102 l 0.325,9.004 -1.516,-6 C 14.941,135.141 12.761,124.336 10.929,114.43 9.101,104.528 5.894,87.813 3.8,77.289 L 0,58.153 0.523,29.074 C 0.808,13.082 1.335,0 1.695,0 Z"
         style="fill:#007f7f;fill-rule:nonzero;stroke:none"
         transform="translate(242.938,249.906)"
         id="path1" />
      <path
         d="m 136.344,0.00624092 c 0.074,-0.08600002 3.074,0.72700008 6.664,1.80899908 l 6.527,1.969 -0.051,17.32796 c -0.023,9.527 -0.324,23.406 -0.668,30.832 -0.609,13.242 -0.578,13.703 1.539,23.398 5.704,26.1098 16.184,83.7808 18.782,103.3708 0.394,2.953 4.79755,11.99482 5.12955,13.93982 H 0 C 1.004,183.35982 3.992,157.116 5.453,145.745 8.16,124.69 11.809,102.545 16.223,80.4052 L 19.371,64.5882 18.77,46.6352 C 18.184,29.2722 18.5,9.74524 19.43,5.70924 c 0.394,-1.707 1.191,-2.164 6.164,-3.535 3.14,-0.863 5.769,-1.499999 5.836,-1.413999 0.066,0.086 0.359,10.120959 0.648,22.296959 0.293,12.176 0.781,26.152 1.09,31.063 0.508,8.035 0.734,9.062 2.281,10.316 1.633,1.32 4.047,1.391 48.199,1.391 31.329,0 46.965,-0.258 47.965,-0.793 0.821,-0.438 1.782,-1.567 2.137,-2.504 0.355,-0.938 1.055,-15.352 1.555,-32.032 0.5,-16.683 0.968,-30.4019591 1.039,-30.4879591 z"
         style="fill:#f99e26;fill-rule:nonzero;stroke:none"
         transform="translate(84.457,241.857)"
         id="path2"
         sodipodi:nodetypes="cccccccccccccccccccsccccc" />
      <path
         id="path3"
         style="fill:#191919;fill-rule:nonzero;stroke:none"
         d="M 169.3279,4.938064e-4 C 153.75327,-0.00638119 138.02161,3.0226666 125.25611,9.0891666 104.53711,18.940177 91.941592,35.469639 85.133592,61.758639 l -1.755827,6.772475 -9.31282,3.500981 c -25.203,9.465 -38.066192,20.434041 -38.121192,32.496145 -0.035,7.782 6.385834,15.29436 19.420834,22.74036 3.883,2.218 7.380805,4.14182 7.775805,4.27482 0.445,0.145 0.359189,1.85427 -0.218811,4.44027 -1.473,6.571 -0.670078,15.11811 1.899922,20.34411 4.168,8.473 12.599788,14.00894 21.368788,14.03594 l 4.87789,0.016 1.755827,5.80651 c 3.418,11.312 10.243882,22.83195 18.486882,31.20995 3.972,4.036 12.09055,10.51703 13.95055,11.13803 0.554,0.184 0.64719,1.99605 0.28819,5.62505 l -0.52835,5.35287 -2.72179,0.49633 c -3.988,0.726 -30.549018,9.68755 -35.330018,11.92255 -4.793,2.238 -5.248817,1.91791 -5.272817,-3.66109 -0.023,-5.429 -1.99854,-17.71447 -3.84254,-23.91447 -3.347,-11.254 -10.625299,-22.61576 -20.125299,-31.41276 -6.418,-5.945 -11.607194,-8.80985 -16.939194,-9.36085 -3.605,-0.371 -4.721063,-0.11997 -9.174063,2.06003 -11.953,5.863 -25.3944975,24.88712 -29.0004975,41.05112 -1.74999498,7.848 -2.85336615,26.35152 -2.57236655,43.14852 0.2380004,14.101 0.31207533,14.65412 2.12407035,17.33412 3.383,4.988 6.1290836,5.7478 20.8831337,5.7478 h 12.909864 l -0.405601,30.16393 -5.742461,1.8092 c -17.582,5.54 -23.1866541,17.18076 -22.1746541,46.05176 0.418,11.883 1.3216585,16.75297 4.0987081,22.14797 3.309,6.422 9.261221,9.83935 18.492221,10.62035 l 5.699766,0.48032 0.01067,9.45692 c 0.011,8.383 0.203785,9.79623 1.691785,12.45623 2.269,4.063 6.900422,6.38288 12.744422,6.38288 7.363,0 12.116254,-3.82057 12.995254,-10.44957 0.453,-3.402 0.771985,-3.83518 5.021985,-6.83118 2.496,-1.762 5.861278,-4.40121 7.482278,-5.86521 l 2.951284,-2.66309 -0.480318,3.33554 c -1.551,10.746 -3.194072,31.18192 -2.631072,32.66692 0.355,0.929 1.253986,2.0423 1.995986,2.4763 v 0.005 c 0.746,0.434 1.940093,0.79386 2.663093,0.80586 1.293,0.023 4.301194,-2.44134 4.328194,-3.53834 0.043,-2.024 3.270438,-29.79596 5.203438,-44.83496 2.707,-21.055 6.354147,-43.19918 10.764445,-65.33918 l 3.15409,-15.81845 -0.60841,-17.9532 c -0.586,-17.363 -0.26689,-36.89104 0.66711,-40.92304 0.394,-1.711 1.19108,-2.162 6.16408,-3.533 3.141,-0.867 5.76618,-1.50561 5.83318,-1.41961 0.066,0.09 0.3621,10.12141 0.6511,22.29741 0.289,12.176 0.78072,26.15486 1.08872,31.06586 0.508,8.035 0.73284,9.06215 2.27884,10.31615 1.633,1.324 4.04952,1.38758 48.20252,1.38758 31.328,0 46.96236,-0.25485 47.96236,-0.78985 0.821,-0.438 1.77575,-1.56599 2.13475,-2.50299 0.356,-0.938 1.05836,-15.35183 1.55836,-32.03183 0.5,-16.679 0.97069,-30.40349 1.04069,-30.48949 0.074,-0.09 3.06506,0.72186 6.65506,1.80386 l 6.53232,1.97464 -0.048,17.32345 c -0.024,9.531 -0.32811,23.40638 -0.66711,30.83638 -0.61,13.242 -0.58399,13.69645 1.53701,23.39145 5.703,26.113 16.17841,83.77965 18.78041,103.36965 l 3.15409,13.80112 h 5.31551 9.13137 l 6.04133,-14.14802 c 2.35157,-5.50538 -6.41712,-21.49213 -7.24212,-34.49213 -0.824,-13.004 -2.16731,-32.75601 -2.98331,-43.90101 -0.82,-11.144 -1.49166,-20.98211 -1.49966,-21.86511 -0.023,-4.34 -5.38627,-6.48591 -8.48027,-3.38891 l -1.57437,1.57438 2.06003,29.09656 c 1.129,16.004 2.20024,33.15518 2.38024,38.10518 l 0.32555,9.00328 -1.51567,-5.99863 c -0.832,-3.301 -3.00754,-14.11387 -4.84054,-24.01587 -1.832,-9.906 -5.04104,-26.62055 -7.13004,-37.14455 l -3.79984,-19.13264 0.51767,-29.07521 c 0.285,-15.992 0.81511,-29.08055 1.17411,-29.08055 1.391,0 13.21856,6.33786 17.49956,9.37686 2.477,1.758 6.9943,5.81096 10.0333,9.01396 19.067,20.074 28.64333,49.79972 35.30333,109.54972 1.383,12.402 2.02644,20.38203 3.69844,45.94503 0.473,7.254 0.88731,9.49607 1.96931,10.69507 l 6.7618,0.0107 c 1.242,-1.371 1.31623,-2.55604 0.85923,-13.68904 -1.582,-38.364 -8.2474,-87.05485 -15.2314,-111.24685 -2.547,-8.824 -7.18664,-20.52727 -10.56164,-26.63627 -14.965,-27.086 -33.25737,-39.95766 -71.67937,-50.42266 -6.281,-1.715 -11.80044,-3.47759 -12.26944,-3.92259 -0.473,-0.445 -1.01513,-2.58047 -1.20613,-4.74447 l -0.3469,-3.92793 6.12672,-4.45627 c 13.524,-9.828 23.36459,-23.73293 28.13059,-39.73293 l 1.53701,-5.16074 5.89723,-0.33622 c 6.332,-0.367 10.14091,-2.02011 15.49291,-6.71911 3.508,-3.078 7.28976,-10.97097 7.71176,-16.09597 0.293,-3.531 -0.69353,-11.22468 -1.81453,-14.14268 -0.222,-0.582 2.62638,-2.41691 7.64238,-4.90991 13.551,-6.738 21.33676,-15.62909 21.32076,-24.35209 -0.023,-11.656103 -12.56154,-22.176919 -37.12854,-31.145919 -5.777,-2.109 -10.96996,-4.091246 -11.54896,-4.408246 -0.578,-0.316 -1.5077,-2.414416 -2.0707,-4.664416 -2.988,-11.961 -8.90048,-26.264471 -13.83848,-33.499471 -5.805,-8.492 -14.90517,-16.366303 -24.46417,-21.1553134 -12.127,-6.078 -27.54187,-9.11915579 -43.11649,-9.1260307936 z M 45.678186,282.92346 h 9.771791 l -1.024678,2.43894 c -0.567,1.34 -2.466119,5.81357 -4.216119,9.94257 -1.75,4.125 -3.481213,7.82243 -3.853213,8.21343 -0.0063,0.007 -0.01507,0.0115 -0.02135,0.016 -0.0062,0.003 -0.02051,0.0147 -0.02669,0.016 h -0.0053 -0.0053 -0.0053 -0.0053 c -0.003,-9.5e-4 -0.013,-0.004 -0.01601,-0.005 -0.353804,-0.23643 -0.592391,-4.1172 -0.592391,-9.96926 z"
         transform="translate(-6.54634e-4,0.00111332)"
         sodipodi:nodetypes="sccccccccccccccccccccccccccscccccccccscccccccccccccccccsccsccsccccccccccccccccccccccccscccccccccccccccccccccccccccsccccscccccccsc" />
      <path
         d="M 32.5936,66.078 C 17.6016,64.453 6.00363,56.356 1.64863,44.481 0.194626,40.52 0.0546264,38.555 0.00762637,21.657 -0.0353736,4.493 0.0626264,3.055 1.39063,1.586 2.80463,0.016 3.13663,0 39.0896,0 c 35.766,0 36.289,0.024 37.832,1.567 1.52,1.519 1.559,2.129 1.313,20.863 l -0.25,19.301 -2.832,5.722 c -1.875,3.793 -4.028,6.79 -6.375,8.883 -8.29,7.371 -22.579,11.219 -36.184,9.742 z"
         style="fill:#000000;fill-rule:nonzero;stroke:none"
         transform="translate(129.367,328.695)"
         id="path4" />
      <path
         d="m 10.093,50.9568 c 19.774,-3.5 62.844,-5.508 88.153,-4.109 15.496,0.859 29.066,2.32 38.754,4.176 9.246,1.765 8.824,2.14 6.152,-5.442 C 134.218,20.2418 119.57,7.26176 93.742,1.79676 82.457,-0.594242 64.351,-0.598242 53.269,1.78076 34.738,5.75776 20.101,14.8478 11.062,27.9878 8.168,32.1948 2.675,43.8868 1.171,49.0348 L 0,53.0508 2.046,52.5348 c 1.125,-0.285 4.747,-0.996 8.047,-1.578 z"
         style="fill:#007f7f;fill-rule:nonzero;stroke:none"
         transform="translate(95.227,10.1642)"
         id="path5" />
      <path
         d="m 26.7814,54.7109 c 2.043,-1.098 4.235,-1.504 8.09,-1.504 h 5.293 l 1.18,-6.942 c 0.648,-3.816 1.058,-7.078 0.914,-7.246 -0.149,-0.172 -2.156,0.145 -4.469,0.7 -4.973,1.191 -6.574,0.543 -6.91,-2.805 -0.398,-3.969 5.398,-7.774 16.789,-11.031 25.719,-7.348 70.8006,-10.25 110.2226,-7.102 24.672,1.973 49.254,8.383 53.664,13.992 1.781,2.262 1.902,4.895 0.3,6.5 -1.445,1.446 -2.003,1.449 -6.566,0.063 l -3.621,-1.098 0.418,2.047 c 0.504,2.473 1.93,11.574 1.937,12.359 0,0.309 2.055,0.563 4.559,0.563 2.949,0 5.828,0.551 8.188,1.566 l 3.636,1.567 8.168,-4.18 c 4.492,-2.301 9.594,-5.402 11.336,-6.895 12.274,-10.507 3.645,-20.609 -27.512,-32.207 C 184.695,2.74594 164.27,-0.215059 122.391,0.011941 81.6254,0.229941 61.3674,2.86294 39.3594,10.7969 c -23.453,8.453 -33.23395,14.058 -37.99195,21.777 -2.894,4.688 -1.3160004,8.375 5.899,13.805 3.88995,2.926 15.21495,9.644 16.52695,9.808 0.105,0.012 1.449,-0.652 2.988,-1.48 z"
         style="fill:#007f7f;fill-rule:nonzero;stroke:none"
         transform="translate(45.7066,67.6331)"
         id="path6" />
      <path
         d="m 91.3543,122.495 c 15.6527,-4.679 28.8397,-14.316 37.8677,-27.6785 12.492,-18.488 17.101,-48.535 12.214,-79.625 l -1.289,-8.20704 -3.75,-0.977 c -10.629,-2.769 -28.379,-4.894 -49.1397,-5.878995 -11.774,-0.562 -46.215,0.813 -58.141,2.316995 -9.523,1.203 -25.03499,4.41 -25.97299,5.375 -1.3,1.328 -3.0700012,17.75404 -3.14000117,29.08604 C -0.172691,66.3515 6.67131,88.1445 20.8273,103.218 c 9.805,10.442 22.66,17.481 37.922,20.758 3.285,0.707 8.301,0.965 15.379,0.789 8.719,-0.215 11.644,-0.602 17.226,-2.27 z"
         style="fill:#ffcba9;fill-rule:nonzero;stroke:none"
         transform="translate(96.4617,95.5665)"
         id="path7" />
      <path
         d="m 43.0868,27.957 c 6.425,-1.665 11.414,-4.379 15.98,-8.7 5.848,-5.535 7.301,-9.746 5.856,-16.976 L 64.4688,0 59.8598,1.726 C 50.9298,5.074 43.9418,6.23 32.7468,6.218 21.5438,6.207 17.0158,5.48 7.11777,2.121 l -6.125003,-2.079 -0.43,1.602 C -2.22623,12.042 5.55177,22.64 19.4458,27.378 c 6.195,2.114 16.731,2.372 23.641,0.579 z"
         style="fill:#ffcba9;fill-rule:nonzero;stroke:none"
         transform="translate(135.593,224.52)"
         id="path8" />
      <path
         d="m 25.7905,67.469 0.223,-21.828 1.769,-1.434 c 2.317,-1.875 3.336,-1.808 5.879,0.375 l 2.106,1.813 0.218,21.539 0.223,21.539 12.328,-0.301 c 8.606,-0.207 12.621,-0.582 13.285,-1.246 2.211,-2.211 1.309,-36.5 -1.289,-48.852 C 58.3105,28.5 53.5365,19.41 45.7395,10.895 40.5565,5.231 33.1735,0 30.3605,0 27.5485,0 24.1695,2.098 18.9895,7.059 9.02846,16.59 3.55246,27.289 1.22046,41.774 -0.174542,50.422 -0.467542,85.277 0.833458,87.707 1.64646,89.223 2.23246,89.297 13.6265,89.297 h 11.945 z"
         style="fill:#989898;fill-rule:nonzero;stroke:none"
         transform="translate(9.53754,183.871)"
         id="path9" />
      <path
         d="M 82.918,46.55 C 84.086,18.613 84.332,7.003 83.825,3.624 L 83.282,0 81.153,3.73 C 78.653,8.105 72.008,14.406 66.598,17.531 60.934,20.8 51.86,23.441 44.5,23.96 28.129,25.117 11.618,17.386 2.594,4.339 L 0,0.589 0.325,28.421 C 0.5,43.73 0.891,56.648 1.184,57.124 c 0.394,0.641 11.152,0.868 40.894,0.868 h 40.364 z"
         style="fill:#007f7f;fill-rule:nonzero;stroke:none"
         transform="translate(126.57,239.938)"
         id="path10" />
      <path
         d="m 42.84,45.789 c 6.465,-2.16 11.617,-6.144 14.094,-10.894 1.898,-3.641 1.964,-4.223 2.187,-19.324 L 59.352,0 H 0 v 13.094 c 0,7.203 0.363,14.809 0.813,16.898 1.734,8.094 9.078,14.727 18.722,16.911 6.653,1.507 16.946,1.015 23.305,-1.114 z"
         style="fill:#f99e26;fill-rule:nonzero;stroke:none"
         transform="translate(138.707,337.699)"
         id="path12" />
      <path
         d="m 33.3712,59.3585 c 8.652,-2.281 14.472,-7.301 13.48,-11.617 -0.82,-3.555 -2.105,-3.883 -12.933,-3.317 -8.961,0.469 -10.106,0.387 -11.442,-0.824 -1.918,-1.738 -1.89,-4.262 0.07,-6.035 1.258,-1.141 3.219,-1.492 10.352,-1.851 6.891,-0.352 9.539,-0.805 12.211,-2.098 3.766,-1.824 5.266,-4.125 4.332,-6.649 -1.027,-2.769 -3.09,-3.238 -14.355,-3.238 -12.055,0 -14.094,-0.641 -14.094,-4.426 0,-3.8 1.625,-4.41 12.512,-4.695 8.628,-0.223 10.156,-0.457 12.003,-1.832 2.805,-2.086 2.989,-4.09802 0.633,-6.89802 -4.785,-5.688 -22.508,-7.782 -32.914,-3.887 C 3.43717,5.65548 0.0231741,14.0855 1.74086e-4,34.6395 -0.0158259,46.5855 1.07017,53.1985 3.63217,56.7495 c 2.395,3.32 7.59003,4.597 16.98503,4.172 4.539,-0.207 10.277,-0.911 12.754,-1.563 z"
         style="fill:#ffcba9;fill-rule:nonzero;stroke:none"
         transform="translate(17.1838,322.974)"
         id="path13" />
      <path
         d="m 17.8925,139.331 c 2.922,-3.172 5.121,-7.312 10.941,-20.613 1.168,-2.664 2.645,-9.305 4.168,-18.758 1.301,-8.047 3.582,-20.371 5.078,-27.391 l 2.711,-12.754 0.02,-30.191 c 0.023,-34.40604 0.863,-31.08204 -6.918,-27.44504 l -3.941,1.844 -0.008,7.26104 c -0.004,9.067 -0.883,12.293 -4.371,16.02 -2.297,2.457 -3.52,3.086 -7.403,3.82 l -4.652,0.883 -6.16001,14.277 c -3.387,7.856 -6.441999,14.602 -6.784999,14.992 -1.125,1.274 -0.684,1.739 2.147999,2.27 5.188,0.973 11.78101,4.516 14.65601,7.879 3.457,4.035 4.93,9.746 3.864,14.961 -0.594,2.894 -0.485,4.097 0.593,6.5 1.934,4.301 1.739,10.363 -0.484,15.137 -1.746,3.757 -1.777,4.062 -0.652,6.75 2.75,6.589 -0.379,15.312 -7.188,20.035 -3.004,2.082 -3.066,2.215 -3.066,6.578 v 4.449 l 2.109,-1.504 c 1.16,-0.824 3.563,-3.074 5.336,-5 z"
         style="fill:#007f7f;fill-rule:nonzero;stroke:none"
         transform="translate(52.4865,251.247)"
         id="path14" />
      <path
         d="M 7.4431,10.574 V 0 L 4.2551,0.531 C 2.5011,0.82 0.818097,1.203 0.513097,1.383 0.212097,1.562 -0.0179026,5.488 0.00109744,10.109 0.0440974,19.656 0.708097,21.144 4.9351,21.144 h 2.508 z"
         style="fill:#c73636;fill-rule:nonzero;stroke:none;fill-opacity:1"
         transform="translate(45.7369,391.594)"
         id="path15" />
      <path
         d="m 4.95956,30.5414 c 3.606,-1 7.68404,-4.57 9.72704,-8.511 2.332,-4.504 2.234,-11.762 -0.215,-16.14904 -2.73,-4.894002 -5.07404,-6.363002 -9.17204,-5.750002 l -3.34,0.5 -0.418,12.539042 c -0.23,6.895 -0.754004,13.617 -1.164004,14.938 -0.539,1.73 -0.504,2.496 0.125,2.754 1.313004,0.535 1.403004,0.527 4.457004,-0.321 z"
         style="fill:#ffcba9;fill-rule:nonzero;stroke:none"
         transform="translate(247.985,130.025)"
         id="path16" />
      <path
         d="m 16.0223,30.7157 c 0.851,-0.54 0.879,-1.528 0.164,-5.637 -0.477,-2.742 -1.078,-9.352 -1.332,-14.692 l -0.465,-9.707016 -3.41,-0.511 c -4.54303,-0.68 -6.75403,0.617 -9.11003,5.335996 -4.621,9.26102 -0.285,21.57402 8.72703,24.78502 3.449,1.23 4.074,1.281 5.426,0.426 z"
         style="fill:#ffcba9;fill-rule:nonzero;stroke:none"
         transform="translate(71.5717,129.972)"
         id="path17" />
      <path
         d="M 3.02278,19.773 C -2.89522,12.742 0.432783,0 8.18678,0 c 4.58202,0 7.87902,4.676 7.87902,11.18 0,6.765 -3.16,10.879 -8.35202,10.879 -2.164,0 -3.187,-0.5 -4.691,-2.286 z"
         style="fill:#191919;fill-rule:nonzero;stroke:none"
         transform="translate(127.141,121.293)"
         id="path18" />
      <path
         d="M 4.06509,20.887 C -0.0639115,17.64 -1.19991,11.183 1.36209,5.543 2.97609,1.992 5.42509,0 8.17909,0 14.1321,0 18.3311,9.765 15.3971,16.785 13.1831,22.086 7.97909,23.969 4.06509,20.887 Z"
         style="fill:#191919;fill-rule:nonzero;stroke:none"
         transform="translate(192.794,121.59)"
         id="path19" />
      <path
         d="m 5.89264,20.9086 c -4.507,-2.289 -6.299997,-5.316 -5.8159973,-9.824 C 1.00264,2.49464 6.80364,-3.00136 9.92464,1.76064 c 1.06996,1.636 1.03496,2.125 -0.426,6.031 -2.039,5.45696 -1.332,6.57796 4.00796,6.33596 2.91,-0.133 3.953,0.137 4.758,1.238 4.003,5.477 -4.77,9.406 -12.37196,5.543 z"
         style="fill:#191919;fill-rule:nonzero;stroke:none"
         transform="translate(156.923,144.876)"
         id="path20" />
      <path
         d="M 20.492,18.383 C 11.098,16.34 0,9.09 0,4.996 0,1.172 5.246,-0.656 7.879,2.254 9.781,4.36 15.242,7.297 19.731,8.629 28.414,11.207 38.625,9.18 46.074,3.395 48.477,1.528 51.016,0 51.711,0 c 2.184,0 3.992,1.887 3.992,4.168 0,4.727 -12.363,13.094 -21.57,14.598 -5.688,0.933 -7.883,0.871 -13.641,-0.383 z"
         style="fill:#191919;fill-rule:nonzero;stroke:none"
         transform="translate(140.207,176.367)"
         id="path21" />
    </g>
    <g
       id="g22"
       transform="matrix(0.27292127,0,0,0.27292127,16.921211,4.0938189)">
      <path
         d="m 207.09761,236.14072 c -0.547,0.011 -1.743,0.339 -3.602,0.957 -1.754,0.582 -3.98,1.386 -6.324,2.277 -4.688,1.785 -9.844,3.922 -12.707,5.363 -9.379,4.719 -15.106,8.746 -22.492,15.824 -8.735,8.364 -13.059,14.317 -18.672,25.696 -10.24995,20.785 -17.39955,54.57189 -17.48555,87.99689 -0.0323,12.96096 8.12768,31.89787 13.02102,51.49696 0.60014,2.40372 18.96441,5.58293 19.71524,9.87524 1.28262,7.3324 0.16458,17.3718 0.84949,18.79275 l 21.26668,-0.58439 h 15.32722 l 23.03796,-0.37735 c 11.95984,-0.1959 -20.81406,-35.8841 -20.81406,-35.8841 -0.012,-8.648 0.343,-13.429 1.328,-17.926 0.375,-1.71 0.668,-3.339 0.844,-4.593 0.086,-0.629 0.14,-1.164 0.16,-1.575 0.011,-0.207 0.011,-0.382 0,-0.531 -0.008,-0.152 -0.008,-0.265 -0.11,-0.433 -0.152,-0.243 -0.347,-0.325 -0.601,-0.446 -0.258,-0.117 -0.574,-0.234 -0.945,-0.343 -0.743,-0.227 -1.692,-0.438 -2.684,-0.586 -2.359,-0.352 -8.606,-1.692 -14.559,-3.063 -2.972,-0.683 -5.879,-1.379 -8.199,-1.961 -2.324,-0.582 -4.086,-1.066 -4.676,-1.289 -0.82,-0.312 -1.382,-0.625 -1.8,-1.172 -0.418,-0.551 -0.711,-1.375 -0.872,-2.754 -0.316,-2.757 -0.078,-7.656 0.512,-16.55 0.586,-8.793 1.746,-22.903 2.848,-35.196 0.547,-6.144 1.082,-11.836 1.519,-16.183 0.219,-2.176 0.414,-4.012 0.578,-5.399 0.161,-1.386 0.293,-2.344 0.368,-2.683 0.441,-2.008 1.726,-3.399 3.179,-3.961 1.453,-0.563 3.047,-0.325 4.25,1.004 0.692,0.761 1.082,2.019 1.102,4.882 0.016,2.86 -0.344,7.27 -1.074,14.2 -1.559,14.754 -3.196,34.234 -3.774,44.941 -0.133,2.473 -0.289,4.855 -0.437,6.695 -0.074,0.922 -0.145,1.707 -0.207,2.301 -0.063,0.594 -0.129,1.024 -0.153,1.109 -0.097,0.34 0.02,0.754 0.309,1.036 0.289,0.281 0.715,0.507 1.348,0.754 1.265,0.488 3.367,1.039 6.761,1.836 6.606,1.546 12.211,2.671 16.641,3.343 4.434,0.672 7.68,0.899 9.641,0.625 1.941,-0.269 7.152,-1.594 11.714,-2.957 3.512,-1.051 5.575,-1.719 6.7926,-2.304 0.606,-0.297 1.016,-0.571 1.278,-0.907 0.261,-0.336 0.336,-0.738 0.289,-1.109 -0.098,-0.781 -0.68,-5.785 -1.289,-11.102 -0.442,-3.816 -0.817,-6.64 -0.731,-8.675 0.086,-2.036 0.575,-3.223 1.903,-4.043 1.328,-0.821 3.593,-1.247 7.183,-1.434 3.59,-0.191 8.492,-0.156 15.098,-0.156 6.207,0 11.242,-0.071 14.734,-0.196 1.746,-0.062 3.106,-0.14 4.039,-0.23 0.469,-0.043 0.828,-0.09 1.09,-0.145 0.133,-0.031 0.238,-0.058 0.34,-0.101 0.051,-0.024 0.105,-0.051 0.168,-0.106 0.063,-0.058 0.148,-0.171 0.148,-0.32 0,-0.211 -0.054,-0.398 -0.136,-0.703 -0.082,-0.305 -0.196,-0.691 -0.336,-1.133 -0.281,-0.887 -0.672,-2.004 -1.098,-3.14 l -1.644,-4.379 -7.567,0.441 c -5.535,0.324 -8.379,0.125 -12.066,-0.836 -18.586,-4.848 -32.3866,-21.125 -37.0666,-43.812 -0.652,-3.145 -0.964,-4.782 -0.957,-5.735 0.008,-0.953 0.258,-1.23 0.93,-1.972 0.59,-0.649 1.035,-0.961 2.188,-1.168 1.152,-0.207 2.992,-0.254 6.156,-0.254 8.4606,0.008 15.0576,0.945 21.7726,3.09 17.977,5.742 30.547,20.527 30.586,35.812 0.004,1.746 0.059,3.078 0.188,4.023 0.062,0.477 0.14,0.856 0.257,1.157 0.118,0.3 0.278,0.562 0.575,0.676 0.3,0.113 0.617,-0.008 0.855,-0.196 0.238,-0.187 0.465,-0.453 0.715,-0.812 0.5,-0.723 1.086,-1.813 1.801,-3.285 l 2.535,-5.231 -1.809,-5.738 c -2.429,-7.723 -2.429,-19.094 -0.011,-26.145 3.078,-8.965 10.304,-17.902 19.707,-24.308 2.613,-1.782 6.929,-4.082 11.004,-5.981 4.078,-1.898 7.984,-3.402 9.562,-3.613 1.285,-0.172 2.031,-0.191 2.52,-0.031 0.488,0.16 0.812,0.5 1.293,1.238 1.984,3.047 3.644,10.289 4.421,17.809 0.782,7.515 0.707,15.367 -0.546,19.671 -1.68,5.758 -5.176,12.641 -8.465,16.68 -4.985,6.125 -16.512,12.172 -25.211,13.192 l -4.426,0.519 -2,4.359 c -2.219,4.836 -3.887,11.856 -3.926,16.582 l -0.027,3.567 h 33.387 l 1.734,1.734 c 1.043,1.043 1.594,2.328 1.699,4.922 0.106,2.59 -0.265,6.441 -1.086,12.43 -0.301,2.172 -0.574,4.254 -0.773,5.859 -0.102,0.805 -0.18,1.488 -0.238,2.008 -0.059,0.52 -0.094,0.852 -0.098,1.031 0,0.071 -0.18,0.531 -0.52,1.008 -0.34,0.477 -0.812,1.02 -1.328,1.496 -0.472,0.442 -0.886,0.906 -1.246,1.684 -0.359,0.777 -0.676,1.859 -1.039,3.605 -0.727,3.488 -1.637,9.641 -3.312,21.258 -1.00036,6.92964 -66.74608,16.19008 -93.15899,27.24181 -8.75656,3.66394 -6.69501,19.34268 -5.80193,19.34364 l 117.47992,0.12605 h 11.75 4.922 c -0.207,-3.332 -2.816,-80.1525 -4.559,-103.5705 -1.531,-20.641 -2.308,-31.301 -2.539,-36.965 -0.117,-2.828 -0.09,-4.414 0.039,-5.344 0.125,-0.926 0.305,-1.156 0.618,-1.5 1.394,-1.539 4.402,-1.801 6.168,-0.512 0.003,0.004 0.167,0.242 0.32,0.68 0.945,0.988 2.699,23.348 4.39,43.496 0.555,7.027 0.895,10.094 1.59,19.516 1.293,17.394 2.46406,72.5785 2.61306,84.1995 h 42.035 c -2.26815,-36.88409 -2.72686,-72.85089 -6.70206,-109.6135 -2.887,-22.379 -6.735,-41.461 -12.075,-52.805 -8.695,-22.531 -20.781,-35.809 -42.48,-46.684 -3.348,-1.675 -8.156,-3.66 -12.445,-5.23 -2.145,-0.785 -4.161,-1.465 -5.797,-1.949 -1.641,-0.489 -2.867,-0.789 -3.598,-0.789 -0.328,0 -0.578,0.152 -0.91,0.359 -0.332,0.203 -0.715,0.492 -1.133,0.844 -0.844,0.699 -1.832,1.656 -2.781,2.711 -12.367,13.722 -35.621,21.57 -57.516,19.347 -9.336,-0.949 -15.871,-2.843 -23.6166,-6.843 -3.195,-1.653 -6.82,-4.211 -9.91,-6.864 -3.09,-2.652 -5.652,-5.422 -6.715,-7.394 -0.117,-0.219 -1.254,-2.305 -1.973,-2.789 -0.086,-0.059 -0.175,-0.121 -0.343,-0.121 z"
         style="fill:#8c5ed2;fill-rule:nonzero;stroke:none"
         id="path1-7"
         sodipodi:nodetypes="cccccccsscccsccccccccsccccccccccccccccccccccccccccsccscccccsssccccccccccccccccccccccccccccscccccscccccsccccssccccccccccccccccccsccccccccc" />
      <path
         d="m 344.69826,453.99074 c -2.17363,-0.011 -0.84626,-5.76749 -1.67826,-19.08749 -0.208,-3.305 -1.797,-61.07125 -3.54,-84.48925 -3.062,-41.285 -3.117,-42.625 -1.785,-44.094 1.551,-1.711 4.723,-1.98 6.668,-0.562 1.383,1.012 2.91,16.137 6.453,63.969 2.309,31.121 3.7127,83.20474 2.4357,84.26374 z M 238.422,446.184 c -5.82,-0.829 -17.297,-3.5 -22.2423,-5.18 -4.969,-1.688 -6.645,-1.859 -18.094,-1.859 -29.17151,0 -50.18823,-5.34144 -63.30529,-16.13991 -5.986,-4.9279 -10.32683,-10.99227 -13.04675,-18.20409 -4.261,-11.297 -5.683,-27.649 -4.113,-47.321 4.09,-51.187 14.46504,-81.359 35.01604,-101.867 12.301,-12.269 32.187,-23.531 51.937,-29.406 4.219,-1.254 9.723,-3.879 9.211,-4.395 -0.187,-0.183 -2.68,0.157 -5.539,0.758 -21.289,4.469 -42.945,-0.386 -56.594,-12.691 -6.996,-6.305 -12.14,-17.707 -12.14,-26.899 0,-7.011 1.777,-12.589 7.461,-23.39 4.683,-8.902 9.089,-19.395 9.082,-21.625 0,-0.488 -1.61,-1.551 -3.575,-2.356 -10.773,-4.421 -22.847,-12.984 -28.09304,-19.925 -5.203,-6.879 -6.207,-9.821 -6.262,-18.399002 -0.047,-7.066 0.102,-7.828 2.477,-12.6483 6.281,-12.739 23.98404,-25.598 45.60904,-33.133 3.312,-1.156 6.414,-2.469 6.894,-2.918 0.485,-0.453 2.11,-4.031 3.614,-7.949 11.828,-30.84 36.168,-49.87497 70.0153,-54.753975 18.192,-2.624995 42.075,0.750005 57.993,8.191005 22.425,10.48797 37.32,27.05097 45.488,50.60197 l 2.894,8.344 8.496,3.785 c 26.594,11.847 40.934,25.199 44.637,41.5623 2.957,13.067002 -2.777,24.969002 -16.633,34.528002 -5.25,3.621 -20.312,11.308 -22.156,11.308 -1.969,0 0.629,8.121 6.031,18.863 5.965,11.86 7.184,18.942 4.817,28.012 -3.266,12.504 -14.16,23.766 -27.985,28.926 -12.304,4.594 -33.031,4.746 -46.941,0.34 -2.164,-0.684 -1.648,0.992 0.672,2.176 1.137,0.582 8.16,3.32 15.605,6.085 26.793,9.954 41.645,19.75 52.989,34.954 16.648,22.316 24.855,92.58632 29.773,165.21932 0.89706,13.23767 2.55728,25.16179 0.0322,25.16179 h -3.58718 -3.74042 c -2.33696,0 -1.66355,-11.01404 -2.12658,-18.97479 -2.832,-48.629 -9.051,-122.61732 -17.031,-143.28932 -8.672,-22.469 -20.66,-35.641 -42.297,-46.485 -6.656,-3.336 -19.211,-7.925 -21.672,-7.925 -0.625,0 -2.668,1.703 -4.547,3.785 -12.472,13.844 -35.82,21.703 -57.832,19.469 -9.367,-0.95 -15.968,-2.864 -23.75,-6.883 -6.465,-3.34 -14.5583,-10.289 -16.7853,-14.414 -0.805,-1.489 -1.699,-2.711 -1.988,-2.711 -1.817,0 -16.793,5.707 -22.461,8.558 -9.356,4.707 -15.031,8.7 -22.402,15.758 -8.711,8.348 -12.989,14.234 -18.594,25.594 -10.207,20.695 -16.344,52.922 -16.43,86.305 -0.043,17.25 1.70859,20.83583 6.04459,29.83583 5.168,10.719 13.17441,18.85517 28.22541,22.66017 8.441,2.132 23.554,4.168 30.972,4.168 h 5.414 l -0.019,-11.821 c -0.016,-8.656 0.344,-13.476 1.336,-18.008 0.746,-3.402 1.168,-6.484 0.941,-6.855 -0.226,-0.367 -2.015,-0.91 -3.969,-1.199 -4.8,-0.719 -24.918,-5.352 -27.507,-6.332 -3.383,-1.285 -3.586,-3.059 -2.403,-20.856 1.172,-17.593 4.645,-56.433 5.321,-59.511 0.933,-4.247 5.472,-6.004 8.078,-3.133 1.562,1.722 1.586,5.504 0.117,19.375 -1.559,14.746 -3.192,34.226 -3.77,44.922 -0.265,4.953 -0.632,9.535 -0.812,10.183 -0.258,0.942 1.367,1.574 8.144,3.164 13.196,3.09 22.391,4.485 26.145,3.961 1.863,-0.261 7.109,-1.586 11.6603,-2.945 7.012,-2.098 8.246,-2.691 8.094,-3.914 -0.102,-0.793 -0.684,-5.793 -1.293,-11.106 -1.754,-15.25 -2.598,-14.73 23.828,-14.73 12.402,0 20.141,-0.277 20.141,-0.719 0,-0.398 -0.696,-2.578 -1.543,-4.847 l -1.547,-4.122 -7.293,0.43 c -5.551,0.324 -8.461,0.121 -12.18,-0.851 -18.742,-4.887 -32.6403,-21.305 -37.3443,-44.098 -1.296,-6.293 -1.296,-6.531 0.067,-8.035 1.234,-1.36 2.281,-1.547 8.6213,-1.543 8.492,0.008 15.133,0.949 21.887,3.109 18.105,5.781 30.812,20.676 30.847,36.164 0.02,6.953 0.832,7.266 3.676,1.403 l 2.469,-5.094 -1.762,-5.598 c -2.461,-7.824 -2.465,-19.215 -0.008,-26.379 3.11,-9.066 10.391,-18.051 19.852,-24.5 5.297,-3.609 17.285,-9.191 20.73,-9.652 2.59,-0.348 3.184,-0.152 4.176,1.371 4.152,6.379 6.492,28.957 3.918,37.793 -1.691,5.809 -5.195,12.711 -8.527,16.809 -5.09,6.25 -16.633,12.293 -25.465,13.328 l -4.215,0.496 -1.91,4.164 c -2.192,4.777 -3.856,11.793 -3.891,16.433 l -0.027,3.188 h 33.164 l 1.844,1.844 c 2.222,2.215 2.363,5.679 0.718,17.672 -0.593,4.332 -1.089,8.316 -1.105,8.851 -0.012,0.535 -0.895,1.785 -1.965,2.774 -1.84,1.699 -2.129,3.089 -5.484,26.32 -3.199,22.152 -3.703,24.656 -5.211,25.879 -2.067,1.668 -9.488,2.539 -17.328,2.035 l -5.762,-0.371 -4.34,4.004 c -6.277,5.789 -11.16,7.226 -25.371,7.472 -5.996,0.102 -11.922,0.043 -13.164,-0.132 z"
         style="fill:#191919;fill-rule:nonzero;stroke:none"
         id="path2-5"
         sodipodi:nodetypes="sccccccscssscccccccsccccccccccccccscsccccccccscscccsccccsccccccscccccccccccccccccsscccccccccccccccccccccccccccccccccccc" />
      <path
         d="m 340.33946,47.159723 c 0,-1.64 -5.778,-13.004 -9.137,-17.976 -4.691,-6.942 -12.992,-15.168 -20.012,-19.836 -15.785,-10.49302 -38.1678,-15.79702 -58.2218,-13.793016 -24.781,2.475996 -42.582,11.722016 -55.723,28.945016 -4.62897,6.062 -11.56997,18.168 -10.83997,18.898 0.156,0.157 4.571,-0.566 9.809,-1.605 42.28897,-8.398 92.86677,-7.008 132.83977,3.645 11.101,2.96 11.285,2.988 11.285,1.722 z"
         style="fill:#007f7f;fill-rule:nonzero;stroke:none"
         id="path3-3" />
      <path
         d="m 203.06966,97.667723 c 10.254,-2.746 14.75,-4.418 23.317,-8.652 7.172,-3.551 18.121,-10.661 17.445,-11.336 -0.512,-0.508 -15.02,1.429 -23.75,3.172 -13.086,2.613 -29.988,9.128 -33.961,13.089 -0.844,0.844 -1.48,2.493 -1.48,3.836 v 2.359997 l 6.207,-0.425997 c 3.41,-0.234 8.91,-1.152 12.222,-2.043 z"
         style="fill:#7f6500;fill-rule:nonzero;stroke:none"
         id="path4-5" />
      <path
         d="m 336.57796,100.66372 c 0,-1.905997 -0.617,-2.651997 -3.949,-4.772997 -11.899,-7.57904 -34.051,-15.28204 -48.14105,-16.743044 -4.496,-0.464 -4.648,-0.425 -3.57,0.895004 1.723,2.105 13.85205,9.85204 19.85205,12.67604 10.168,4.793 27.46,9.995997 33.738,10.155997 1.812,0.043 2.07,-0.23 2.07,-2.211 z"
         style="fill:#7f6500;fill-rule:nonzero;stroke:none"
         id="path5-6" />
      <path
         d="m 370.41726,132.15172 c 11.129,-4.281 21.738,-12.691 25.238,-20.004 2.188,-4.566 1.836,-10.953 -0.914,-16.764997 -2.871,-6.063 -6.976,-10.695 -14.437,-16.305 -20.836,-15.668 -60.528,-27.73005 -101.996,-31.004047 -14.227,-1.125 -47.133,-0.469 -59.0706,1.171997 -38.328,5.274 -66.492,15.71905 -82.38597,30.55105 -6.348,5.926 -8.914,10.844 -8.934,17.121 -0.016,3.690997 0.414,5.698997 1.746,8.226997 3.75,7.121 14.74597,16.39 24.57797,20.73 2.344,1.035 4.36,1.781 4.477,1.66 0.121,-0.121 0.945,-3.09 1.828,-6.597 4.344,-17.266 7.121,-24.132997 11.871,-29.378997 9.457,-10.446 32.867,-19.883 58.6406,-23.637 11.933,-1.738 37.695,-1.746 50.234,-0.016 19.305,2.664 32.047,6.559 49.832,15.231 18.391,8.968 22.492,14.816 29.922,42.678997 2.015,7.543 2.398,8.629 3.055,8.629 0.195,0 3.039,-1.031 6.316,-2.293 z"
         style="fill:#007f7f;fill-rule:nonzero;stroke:none"
         id="path6-2" />
      <path
         d="m 277.53066,207.29672 c 28.387,-7.492 47.203,-30.309 53.055,-64.328 2.043,-11.899 2.887,-30.129 1.406,-30.535 -0.582,-0.161 -4.066,-0.864 -7.75,-1.563 -20.769,-3.949 -41.59,-14.655997 -56.523,-29.069997 l -6.824,-6.59 -5.598,5.66 c -6.371,6.445 -17.246,14.008 -25.824,17.965 -11.614,5.351997 -32.051,10.843997 -40.36,10.843997 h -2.968 v 8.09 c 0,25.433 6.621,49.671 17.648,64.597 9.613,13.008 21.324,20.594 39.141,25.348 6.054,1.613 7.921,1.773 17.675,1.488 7.879,-0.226 12.579,-0.758 16.922,-1.906 z"
         style="fill:#ffcba9;fill-rule:nonzero;stroke:none"
         id="path7-9" />
      <path
         d="m 220.15563,137.02672 c -3.75,-2.617 -5.094,-9.593 -2.875,-14.88995 2.688,-6.422 10.39103,-6.672 13.62103,-0.442 2.348,4.532 0.883,12.75795 -2.722,15.28195 -2.21503,1.546 -5.85203,1.57 -8.02403,0.05 z"
         style="fill:#191919;fill-rule:nonzero;stroke:none"
         id="path8-1" />
      <path
         d="m 284.97966,136.39772 c -2.359,-2.355 -2.558,-2.914 -2.558,-7.207 0,-4.289 0.199,-4.851 2.558,-7.203 1.981,-1.976 3.18,-2.55 5.321,-2.55 7.449,0 10.644,11.421 4.82,17.23 -3.242,3.238 -6.719,3.144 -10.141,-0.27 z"
         style="fill:#191919;fill-rule:nonzero;stroke:none"
         id="path9-2" />
      <path
         d="m 251.12893,160.54652 c -4.731,-0.965 -6.695,-3.535 -6.668,-8.715 0.047,-7.78105 5.406,-14.12505 8.644,-10.23405 0.829,0.996 0.856,2.011 0.145,5.394 -0.484,2.293 -0.695,4.46105 -0.477,4.81705 0.223,0.359 1.71903,0.648 3.32503,0.648 2.851,0 5.261,1.902 5.261,4.152 0,3.071 -5.015,5.004 -10.23003,3.938 z"
         style="fill:#191919;fill-rule:nonzero;stroke:none"
         id="path10-7" />
      <path
         d="m 247.44436,187.06142 c -6.113,-1.777 -9.96801,-3.867 -14.25701,-7.74202 -3.965,-3.582 -4.79,-6.746 -2.239,-8.605 2.196,-1.602 3.895,-1.18 7.867,1.953 5.36001,4.227 10.79301,6.059 17.97301,6.059 7.469,0 12.172,-1.508 17.797,-5.707 4.457,-3.325 7.473,-4.114 9.191,-2.399 1.692,1.691 0.938,4.344 -2.203,7.746 -8.035,8.69902 -21.933,12.23802 -34.129,8.69502 z"
         style="fill:#191919;fill-rule:nonzero;stroke:none"
         id="path11-0" />
      <path
         d="m 341.86266,212.11672 c 10.637,-2.75 20.278,-9.8943 24.449,-18.1213 1.754,-3.457 2.211,-5.461 2.45,-10.699 l 0.293,-6.449 -4.883,-9.832 c -5.024,-10.114 -8.938,-21.102 -11.742,-32.946 -2.289,-9.683 -4.426,-17.20297 -6.262,-22.04997 -1.449,-3.825 -1.645,-4.043 -2.133,-2.34 -0.297,1.031 -0.574,3.902 -0.621,6.379 -0.137,7.33597 -2.191,24.93297 -3.902,33.38197 -4.77,23.539 -15.282,41.34 -32.504,55.039 l -4.371,3.481 2.484,1.5083 c 2.121,1.285 7,2.621 14.91,4.082 3.625,0.668 17.133,-0.219 21.832,-1.434 z"
         style="fill:#7f6500;fill-rule:nonzero;stroke:none"
         id="path12-9" />
      <path
         d="m 205.57366,212.53472 c 6.59,-1.359 10.656,-3.047 10.656,-4.426 0,-0.328 -2.359,-2.2114 -5.246,-4.1754 -8.375,-5.711 -17.574,-16.77 -23.156,-27.836 -6.766,-13.414 -10.672,-33.172 -11.797,-59.664 -0.199,-4.74598 -0.39,-9.13698 -0.422,-9.75398 -0.121,-2.512 -2.195,4.086 -4.836,15.40198 -3.929,16.82 -7.148,25.922 -14.05404,39.758 -7.172,14.371 -8.219,18.656 -6.34,25.976 1.527,5.942 3.773,9.782 8.433,14.414 4.34404,4.3214 13.61404,9.0864 20.56304,10.5714 7.176,1.535 17.98,1.426 26.199,-0.266 z"
         style="fill:#7f6500;fill-rule:nonzero;stroke:none"
         id="path13-3" />
      <path
         d="m 267.58966,250.40572 c 11.848,-2.062 22.09,-6.597 29.105,-12.894 l 3.754,-3.367 -2.211,-2.758 c -3.031,-3.782 -5.058,-8.699 -5.679,-13.782 l -0.52,-4.273 -3.824,1.504 c -11.664,4.59 -29.211,6.309 -41.899,4.102 -3.929,-0.68 -10.445,-2.364 -14.476,-3.739 l -7.336,-2.5 v 3.239 c 0,5.632 -1.508,10.71 -4.246,14.292 l -2.606,3.403 2,2.617 c 2.34,3.062 6.743,6.395 11.946,9.043 11.179,5.691 23.007,7.371 35.992,5.113 z"
         style="fill:#ffcba9;fill-rule:nonzero;stroke:none"
         id="path14-6" />
      <path
         d="m 304.31166,311.11272 c 4.11,-2.551 9.376,-9.008 11.18,-13.707 2.258,-5.886 3.145,-13.937 2.285,-20.707 -0.906,-7.148 -1.488,-9.414 -2.41,-9.414 -1.855,0 -14.164,7.067 -17.715,10.172 -4.74204,4.145 -9.46104,11.797 -11.08204,17.969 -1.144,4.363 -1.461,16.136 -0.433,16.136 0.273,0 1.277,-1.605 2.23,-3.566 2.945,-6.058 12.15304,-19.613 13.64504,-20.086 1.961,-0.621 4.375,0.832 4.906,2.953 0.5,1.977 -0.457,4.114 -4.566,10.192 -2.981,4.41 -5.86,9.804 -6.727,12.586 l -0.52704,1.707 3.25004,-1.278 c 1.789,-0.703 4.472,-2.031 5.964,-2.957 z"
         style="fill:#007f00;fill-rule:nonzero;stroke:none"
         id="path15-0" />
      <path
         d="m 252.70666,326.74612 c -2.898,-2.777 -6.875,-6.469 -8.836,-8.199 -5.051,-4.449 -4.762,-8.485 0.606,-8.485 2.855,0 6.554,2.555 14.261,9.864 3.098,2.933 5.633,4.933 5.633,4.441 0,-0.492 -1.16,-3.394 -2.574,-6.449 -4.367,-9.434 -12.652,-15.85904 -25.524,-19.78904 -5.113,-1.563 -14.023,-2.16 -14.023,-0.945 0,1.414 2.949,9.058 5.266,13.63204 3.129,6.192 11.582,14.731 17.332,17.516 3.691,1.785 8.656,3.191 12,3.398 0.621,0.04 -1.243,-2.203 -4.141,-4.984 z"
         style="fill:#007f00;fill-rule:nonzero;stroke:none"
         id="path16-6" />
      <path
         d="m 297.23766,372.60872 10.676,-0.488 0.445,-4.199 c 0.246,-2.309 0.594,-5.129 0.774,-6.266 l 0.328,-2.062 h -20.852 c -11.468,0 -27.754,0.226 -36.187,0.496 l -15.328,0.496 0.468,5.574 c 0.262,3.063 0.665,5.879 0.899,6.254 0.488,0.789 42.68,0.93 58.777,0.195 z"
         style="fill:#c73636;fill-rule:nonzero;stroke:none"
         id="path17-2" />
      <path
         d="m 297.76566,423.57372 c 0.679,-3.336 5.714,-38.703 5.714,-40.144 0,-1.239 -1.871,-1.321 -30.085,-1.321 h -30.086 l 0.074,1.688 c 0.039,0.93 0.465,3.379 0.941,5.441 l 0.871,3.754 10.547,0.465 c 17.293,0.77 21.703,2.094 24.371,7.313 2.86,5.593 3.727,16.437 1.852,23.179 -0.465,1.672 -0.403,1.688 7.453,1.688 h 7.926 z"
         style="fill:#c73636;fill-rule:nonzero;stroke:none"
         id="path18-6" />
      <path
         d="m 265.10866,435.80872 c 3.121,-1.133 7.536,-4.489 7.536,-5.731 0,-0.293 -2.118,0.137 -4.704,0.957 -6.55,2.07 -19.679,2.305 -22.593,0.403 -1.262,-0.825 -2.039,-2.004 -2.039,-3.098 0,-3.16 1.8,-3.813 10.828,-3.902 9.211,-0.09 14.863,-1.438 18.246,-4.336 2.285,-1.961 2.055,-4.809 -0.309,-3.84 -3.988,1.636 -9.715,2.679 -16.73,3.047 -9.883,0.523 -11.66,-0.176 -11.66,-4.575 v -2.98 l 9.402,-0.496 c 12.012,-0.637 20.309,-3.172 20.309,-6.203 0,-1.899 -4.633,-2.684 -16.094,-2.727 -13.172,-0.055 -18.367,-0.73 -19.711,-2.566 -0.528,-0.719 -1.531,-3.953 -2.235,-7.188 l -1.273,-5.886 -2.344,0.421 c -1.289,0.231 -6.5,1.778 -11.582,3.434 -6.56201,2.141 -9.48001,3.465 -10.06601,4.559 -3.274,6.097 -4.793,27.789 -2.235,31.878 0.754,1.211 12.77001,5.719 20.77801,7.797 11.211,2.911 29.859,3.438 36.476,1.032 z"
         style="fill:#ffcba9;fill-rule:nonzero;stroke:none"
         id="path19-1" />
    </g>
  </g>
</svg>
